<svg
  version="1.1"
  xmlns="http://www.w3.org/2000/svg"
  xmlns:xlink="http://www.w3.org/1999/xlink"
  x="0px"
  y="0px"
  viewBox="0 0 135.7427 125.4471"
  enable-background="new 0 0 135.7427 125.4471"
  xml:space="preserve"
>
  <g>
    <path
      fill="#db7d67"
      d="M46.3709,123.4824c-0.718-1.036-1.9904-1.1435-3.1008-1.5854c-1.2856-0.5117-2.4638-1.1784-3.5942-1.9727
                  c-1.5318-1.0764-3.2602,1.2297-1.742,2.334c1.2495,0.9086,2.5876,1.7014,4.0061,2.3174c1.2267,0.5326,2.7301,1.2758,4.0077,0.6047
                  C46.6049,124.8354,46.7955,124.0952,46.3709,123.4824z"
    />
    <path
      fill="#db7d67"
      d="M53.0453,115.3059c-4.4957-1.9741-16.933-9.8289-17.1288,0.5154c-0.0176,0.9304-1.339,0.8885-0.5229,1.3398
                  c4.3032,2.3803,8.8232,4.1526,13.4673,5.7454C50.2921,123.3976,54.4329,115.9152,53.0453,115.3059z"
    />
    <path
      fill="#db7d67"
      d="M62.0153,116.0416c-2.2559-8.7056-23.1343-17.659-29.0229-12.8535c-1.0698,0.873-2.0786,1.41-0.7908,2.0262
                  c9.4616,4.5257,18.9397,8.7919,28.2448,13.6547C62.0641,119.7142,62.4759,117.819,62.0153,116.0416z"
    />
    <path
      fill="#db7d67"
      d="M76.0122,107.4455c-5.951-10.7841-44.442-25.2437-50.1732-15.1986
                  c-0.8961,1.5705-2.7192,1.8645-1.033,2.647c15.2403,7.0732,31.1254,13.0623,46.6307,19.5559
                  C73.8316,115.4529,77.2432,109.6764,76.0122,107.4455z"
    />
    <path
      fill="#db7d67"
      d="M83.7416,106.7034C78.3731,94.7113,29.5014,64.5428,19.746,80.4405
                  c-0.7308,1.191-1.9928,1.3809-0.778,1.9935c20.5406,10.3589,42.2243,18.8136,63.4472,27.668
                  C84.5853,111.0076,84.6997,108.8435,83.7416,106.7034z"
    />
    <path
      fill="#db7d67"
      d="M98.5164,101.8162C75.9046,83.6435,29.9653,64.7263,11.4555,66.8863
                  c-1.4692,0.1715-2.1442,1.4899-0.829,2.1242C38.748,82.571,68.3512,93.2941,97.2411,105.084
                  C99.3326,105.9376,100.2773,103.2313,98.5164,101.8162z"
    />
    <path
      fill="#db7d67"
      d="M107.1592,96.1165C83.8287,79.3572,34.7819,55.1261,5.8419,55.6944
                  c-1.5715,0.0309-2.194,1.5156-0.8673,2.2222c31.9451,17.0142,66.9155,29.2015,100.7179,41.958
                  C108.1199,100.7907,109.2719,97.6342,107.1592,96.1165z"
    />
    <path
      fill="#db7d67"
      d="M114.6054,91.6748c-18.5585-7.6446-37.8352-19.8791-56.4415-27.4064
                  c-18.5205-7.4928-36.2257-11.488-55.3145-17.4242c-1.1381-0.3538-1.693,1.1593-0.6632,1.6994
                  c17.7171,9.2916,36.8515,16.1962,55.2638,23.9894c18.4876,7.8251,37,15.5839,55.5358,23.2921
                  C115.6339,96.9261,117.2585,92.7675,114.6054,91.6748z"
    />
    <path
      fill="#db7d67"
      d="M122.1404,85.1791c-20.1722-8.1227-46.2771-24.6321-66.3275-33.0562
                  C35.8548,43.7373,22.0684,42.4468,1.59,35.409c-1.1488-0.3948-2.2602,1.2992-1.0966,1.976
                  c18.2497,10.615,38.3164,18.5188,57.6704,26.8833c20.5605,8.8859,41.2186,17.6126,62.1146,25.6818
                  C123.3536,91.1378,125.2017,86.4118,122.1404,85.1791z"
    />
    <path
      fill="#db7d67"
      d="M125.8786,79.2283c-20.4912-8.5128-39.3423-23.3619-59.7019-32.1852
                  c-20.2289-8.7668-41.822-12.9998-62.7254-20.0257c-1.4301-0.4806-2.8188,1.6116-1.3664,2.4625
                  c18.5942,10.8928,39.283,18.7518,58.9938,27.3905c20.9225,9.1696,41.9389,18.119,63.0272,26.9002
                  C127.0041,84.9774,128.7778,80.4327,125.8786,79.2283z"
    />
    <path
      fill="#db7d67"
      d="M130.2242,73.6163c-20.2535-10.3398-41.0253-19.7456-61.8777-28.8054
                  C47.6527,35.82,26.5998,25.9044,4.8377,19.8079c-1.5911-0.4457-2.4066,1.6343-0.931,2.3856
                  c20.225,10.2978,41.8862,18.0369,62.5945,27.3457c20.7709,9.3368,41.2042,19.3354,61.7207,29.2078
                  C131.4383,80.2947,133.338,75.2059,130.2242,73.6163z"
    />
    <path
      fill="#db7d67"
      d="M133.7529,64.5225C92.9384,44.6669,51.2215,25.7029,7.7763,12.2997
                  c-2.0049-0.6184-3.1193,2.1105-1.1989,3.0718c41.237,20.6429,83.5807,36.8986,125.1858,54.2489
                  C134.9886,70.9654,136.9225,66.0644,133.7529,64.5225z"
    />
    <path
      fill="#db7d67"
      d="M134.2905,55.923C94.9692,38.3296,54.6778,19.4975,13.2622,7.3866
                  c-1.3778-0.4028-2.1423,1.4799-0.8162,2.0915c39.4496,18.1936,80.5137,32.9042,120.0718,50.9872
                  C135.3698,61.7691,137.153,57.2038,134.2905,55.923z"
    />
    <path
      fill="#db7d67"
      d="M67.0403,21.4345C51.8222,14.2468,35.3193,7.9447,19.1524,3.2534
                  c-1.6513-0.4791-2.5117,1.7162-0.9693,2.4837c15.0681,7.4986,31.4775,14.0419,47.5436,19.0634
                  C67.9489,25.4949,69.1491,22.4304,67.0403,21.4345z"
    />
    <path
      fill="#db7d67"
      d="M57.3122,11.6418C57.4051,8.9267,34.2234-3.2668,28.3663,0.8357c-1.0556,0.7394-1.444,1.5195-0.4906,2.0276
                  c8.8657,4.7246,18.7788,8.4473,28.1739,12.0138C58.1769,15.6846,57.2371,13.8362,57.3122,11.6418z"
    />
    <path
      fill="#db7d67"
      d="M133.1648,47.7784c-14.3374-6.7709-29.4575-12.6714-44.4443-17.8448
                  c-1.916-0.6615-2.9336,2.0409-1.1351,2.9084c14.2838,6.8894,29.1755,13.3631,44.1255,18.6617
                  C134.1552,52.3701,135.4792,48.8715,133.1648,47.7784z"
    />
    <path
      fill="#db7d67"
      d="M128.0374,37.178c-8.7472-3.7643-17.9131-7.8857-27.2702-9.8305c-1.6177-0.336-1.8544,1.9524-0.63,2.6019
                  c8.3756,4.4434,17.5773,7.6076,26.2422,11.4769C129.0562,42.6215,130.7358,38.3392,128.0374,37.178z"
    />
  </g>
</svg>