<svg
  version="1.1"
  xmlns="http://www.w3.org/2000/svg"
  xmlnsXlink="http://www.w3.org/1999/xlink"
  x="0px"
  y="0px"
  viewBox="0 0 61.0903 58.3236"
  enableBackground="new 0 0 61.0903 58.3236"
  xmlSpace="preserve"
>
  <g>
    <g>
      <path
        fill="#db7d67"
        d="M35.9444,45.3305c-10.4863,0.4059-23.3154,1.1544-24.786-9.9408
                    c-0.0596-0.4498-2.4276,1.2219-2.4493,0.7422c-0.0445-0.9828-2.2473-1.9201-2.3009-2.8204c-0.026-0.4362,0.95-5.4905,0.925-5.9088
                    c-0.613-10.2666,2.9679-15.6386,18.7795-22.1382"
      />
      <g>
        <path
          fill="#db7d67"
          d="M17.5292,2.3522c-3.0514,1.7301-4.9803,2.7768-5.9291,3.8411c-2.3624,2.6499-2.0799,2.8104-3.8628,5.1073
                        c-0.9299,1.198-2.1649,3.3742-2.8958,4.6846c-1.5784,2.8298-3.161,5.0214-4.1949,7.9994
                        c-0.1643,0.4732-0.287,1.1995-0.344,1.6845c-0.6135,5.2182-0.392,10.2644,1.5788,15.0433
                        c1.0541,2.556,2.3881,4.0704,4.1426,6.0135c1.5003,1.6615,2.9967,2.7417,4.9881,4.0083
                        c1.9914,1.2666,4.2598,2.4221,6.6644,3.3156c4.0993,1.5233,8.6838,2.8517,13.0389,3.4698
                        c0.9472,0.1344,1.3667,0.3425,1.8013-0.118c0.1304-0.1381-0.2267,0.08,0,0c0.2267-0.08,0.8197,0.0119,1.2083,0.0417
                        c0.1177,0.009,1.3635,0.1445,1.5,0.1667c0.3615,0.0587-0.5167-0.1693,0,0c0.2272,0.0744,0.5132-0.1127,0.7193-0.0417
                        c0.2106,0.0726,0.7986-0.0688,0.9891,0c0.1507,0.0544,3.2895,0.7708,0.9236-0.1166c-0.4224-0.1584,1.9838,0.8688,3.0906,0.8717
                        c7.957,0.0214,10.8035-2.7496,18.2347-5.2135C68.111,50.1496,44.2658-12.8068,17.5292,2.3522z M20.8936,43.3265
                        c-0.1999-0.0728-0.7859,0.0706-0.9847-0.0044c-0.1874-0.0707-0.199-1.1271-0.3852-1.1999
                        c-0.1944-0.076-0.3881-0.153-0.5808-0.2313c-0.1956-0.0794-0.3902-0.16-0.5839-0.2419c-0.2364-0.1,21.2113,0.4893,20.9783,0.3854
                        c-0.1281-0.0571-21.9761-0.7566-22.0651-0.8643c-3.3676-4.0733-8.5622-5.1499-9.5219-9.8847
                        c-0.4181-2.0628,0.3013-3.9592,0.1423-5.306c-0.0724-0.6131,0.9769-1.2124,0.9649-1.7231
                        c-0.0128-0.5442-1.7365-1.1933-1.5226-1.5587c0.3137-0.5356,0.7814-0.721,1.003-1.2618
                        c0.1555-0.3795-0.7241-0.8316-0.4942-1.2088c0.1826-0.2997,0.3894-0.6032,0.6213-0.9176c0.2154-0.292,0.4525-0.5934,0.7121-0.91
                        c0.2411-0.294,0.5017-0.6011,0.7823-0.9259c0.2952-0.3416,0.6127-0.7028,0.9532-1.0889
                        c0.2928-0.3319,0.6025-0.6823,0.9298-1.0544c0.2545-0.2894,0.5196-0.5919,0.7955-0.9092
                        c0.3291-0.3784,0.6735-0.7779,1.0337-1.2011c0.4514-0.5303-0.1945-1.491,0.3072-2.1011
                        c0.3813-0.4636,2.0382,0.6636,2.4493,0.1484c0.4176-0.5232,0.7385,0.2101,1.1876-0.3711
                        c0.2728-0.353,1.1256-1.4054,1.4102-1.7813 M30.2825,41.0306c0,0-1.2261,4.206-1.5216,4.1193
                        c-0.2425-0.0711-1.2009-0.4472-1.4473-0.5196c-0.1911-0.0561-0.4377-0.0544-0.6309-0.1113c-0.2012-0.0593,0.2031,0.0603,0,0
                        c-0.5116-0.152-1.5851-0.8654-2.1052-1.0255c-0.1648-0.0507-0.3299-0.1019-0.4952-0.1536
                        c-0.3719-0.1163,4.1062,2.3197,3.7138,2.3295c-0.1685,0.0042-5.1664-2.7959-5.3336-2.8516 M60.157,48.2302"
        />
      </g>
    </g>
  </g>
</svg>