<svg
  version="1.1"
  xmlns="http://www.w3.org/2000/svg"
  xmlns:xlink="http://www.w3.org/1999/xlink"
  x="0px"
  y="0px"
  viewBox="0 0 273.1091 238.2098"
  enable-background="new 0 0 273.1091 238.2098"
  xml:space="preserve"
>
  <path
    fill="#5f1e1e"
    d="M136.7428,23.457L136.7428,23.457C105.6324-7.6197,55.2286-7.8699,23.8161,23.0177
          c-31.6835,31.1545-31.6582,82.277-0.501,113.9287l90.7191,92.1591c11.8174,12.005,31.1293,12.1571,43.1343,0.3396l91.6648-90.2325
          c31.6726-31.1777,32.5645-83.0754,1.4308-114.7912C219.1893-7.2342,168.3452-7.6516,136.7428,23.457z"
  />
  <path
    fill="#FFFFFF"
    d="M110.7149,123.5662l-2.9542-2.9542c-1.2509-1.2509-1.2509-3.2736,0-4.5112l25.8562-25.8695
          c1.2509-1.2509,3.2736-1.2509,4.5112,0l25.8562,25.8562c1.2509,1.2509,1.2509,3.2736,0,4.5112l-2.9542,2.9542
          c-1.2642,1.2642-3.3268,1.2376-4.5644-0.0532l-15.2635-16.0221v38.2454c0,1.7699-1.4239,3.1938-3.1938,3.1938H133.75
          c-1.7699,0-3.1938-1.4239-3.1938-3.1938v-38.2454l-15.2769,16.0354C114.0418,124.8171,111.9791,124.8437,110.7149,123.5662z"
  />
</svg>