<?xml version="1.0" encoding="utf-8"?>
<!-- Generator: Adobe Illustrator 22.1.0, SVG Export Plug-In . SVG Version: 6.00 Build 0)  -->
<svg version="1.1" id="Layer_1" xmlns="http://www.w3.org/2000/svg" xmlns:xlink="http://www.w3.org/1999/xlink" x="0px" y="0px"
	 viewBox="0 0 410.6 401.3" style="enable-background:new 0 0 410.6 401.3;" xml:space="preserve">
<style type="text/css">
	.st0{opacity:0.15;}
	.st1{stroke:#FFFFFF;stroke-width:0.3951;stroke-miterlimit:10;}
</style>
<g class="st0">
	<path class="st1" d="M199.9,8.3c0.4,0.3,0.7,0.7,1.1,1.1c0.3,0.4,0.7,0.7,1,1c6.3,5.6,13,8.7,18.9,8.7l0,0c5.8,0,10.7-2.9,14.6-8.5
		c2.1-3.1,3.8-6.7,4.8-10.4h-0.2c-1,3.6-2.7,7.2-4.7,10.3c-3.9,5.6-8.7,8.4-14.4,8.4l0,0c-5.8,0-12.5-3.1-18.8-8.7
		c-0.3-0.3-0.6-0.6-1-1c-0.4-0.4-0.7-0.7-1.1-1.1c-2.8-2.5-5.9-4.7-8.8-7c-0.4-0.3-0.9-0.6-1.3-1h-0.3c0.5,0.4,1,0.8,1.5,1.1
		C194.1,3.5,197.1,5.8,199.9,8.3z"/>
	<path class="st1" d="M12.7,26.6c4.1-3.8,8.3-7.8,11-13.4c1.4-2.9,2.7-7.4,3.3-13h-0.2c-0.6,5.6-2,10.1-3.3,12.9
		c-2.7,5.6-6.9,9.5-11,13.3c-4.8,4.4-9.7,9-12.1,16.2c-0.1,0.2-0.2,0.4-0.2,0.7V44c0.1-0.4,0.3-0.8,0.4-1.2C3,35.6,7.9,31,12.7,26.6
		z"/>
	<path class="st1" d="M219.5,10.3L219.5,10.3c2,0,4-0.7,5.7-2.1c1.7-1.3,2.5-2.6,3.4-3.9c0.4-0.6,0.7-1.2,1.2-1.7
		c0.3-0.8,0.6-1.6,0.9-2.4h-0.2c-0.2,0.8-0.5,1.6-0.8,2.3c-0.5,0.6-0.8,1.2-1.2,1.8c-0.9,1.3-1.7,2.6-3.3,3.8c-1.8,1.4-3.7,2-5.6,2
		l0,0c-5.3,0-10.3-4.7-14.8-8.8c-0.4-0.4-0.8-0.7-1.2-1.1h-0.3c0.4,0.4,0.9,0.8,1.3,1.2C209.1,5.6,214.2,10.3,219.5,10.3z"/>
	<path class="st1" d="M3.7,59.9c1-4.9,1.8-9.6,3.2-12.9c2.3-5.6,7.1-10.3,12.2-15.3c3.1-3.1,6.3-6.2,9.1-9.7
		c3.4-4.3,5.7-8.1,7.6-12.5c1.1-2.6,2.1-5.6,3-8.5c0.1-0.3,0.2-0.5,0.3-0.8h-0.2c-0.1,0.2-0.2,0.5-0.2,0.7c-0.9,2.9-1.9,5.9-3,8.5
		c-1.9,4.4-4.2,8.2-7.6,12.5c-2.7,3.5-5.9,6.6-9,9.7C13.8,36.6,9,41.3,6.7,47c-1.4,3.3-2.3,8-3.2,12.9c-0.9,4.7-1.8,9.7-3.2,13.2
		c0,0,0,0.1,0,0.1v0.5c0.1-0.2,0.1-0.3,0.2-0.5C1.8,69.6,2.8,64.7,3.7,59.9z"/>
	<path class="st1" d="M19.2,121.2c6.6,2.6,14.8,5.9,18,12.6c0.2,3.7-1.1,6.8-2.4,10.1c-1.9,4.6-4.1,9.8-2.9,18
		c0.9,6.2,4.6,10.2,8.8,14.8c1.7,1.9,3.5,3.9,5.2,6.1c4.4,5.9,7.5,12.5,9.9,18.2c2.4,5.7,4.2,10.1,10.5,11.6
		c3.7,0.9,8.9,1.5,12.5,1.9c2,0.2,3.8,0.3,5.5,0.3c2.7,0,5.1-0.3,7.1-0.9c4.2-1.3,6.9-4.7,10.3-9c1-1.3,2-2.6,3.2-4
		c0.8-1,1.8-2,3-3.2c2.3-2.3,4.7-4.8,5.4-6.7c0.2-0.8,0.2-1.4,0.1-2.2c-0.1-0.6-0.1-1.3,0-2l0,0l0,0c-2.3-3-5-5.4-7.7-7.7
		c-4.5-4-8.8-7.7-10.4-13.8c-0.9-3.2-0.5-6.7,0.9-10.6c1.6-4.1,5.2-8.6,10.4-12.7c2.3-1.8,4.7-3.7,7.3-5.8
		c11.9-9.3,25.3-19.7,32.7-28.9l0-0.1c0.2-1.1,0.2-2.4-0.2-3.8c-1-3.8-4-8.4-8.2-12.5c-4.1-3.9-8.7-6.8-12.5-7.9
		c-0.3-0.1-0.9-0.2-1.5-0.4c-4.9-1.1-10.1-0.3-15,0.4c-4.3,0.6-8.3,1.3-12.3,0.7c-8.5-1.1-14.6-6.8-16.8-15.6
		c-2.8-11.6,5-18.8,12.6-25.9c5.6-5.2,11.4-10.6,12.9-17.6c1.5-6.7-0.4-13.9-1.7-18.6c-0.5-1.9-1.1-3.8-1.8-5.7h-0.2
		c0.7,1.9,1.3,3.9,1.8,5.8c1.2,4.7,3.1,11.9,1.7,18.5c-1.5,7-7.3,12.4-12.9,17.5c-7.6,7.1-15.5,14.4-12.7,26.1
		c2.2,8.9,8.4,14.6,17,15.8c4,0.5,8-0.1,12.3-0.7c4.9-0.7,10-1.5,15-0.4c0.6,0.1,1.2,0.3,1.5,0.4c7.4,2,18.5,12,20.5,20.2
		c0.4,1.4,0.4,2.6,0.2,3.7c-7.4,9.1-20.8,19.6-32.6,28.9c-2.6,2-5,3.9-7.4,5.8c-5.1,4.1-8.8,8.6-10.4,12.8c-1.5,3.9-1.8,7.4-1,10.7
		c1.6,6.2,5.9,10,10.4,13.9c2.6,2.3,5.4,4.7,7.6,7.6c-0.1,0.8,0,1.4,0,2c0.1,0.8,0.1,1.4-0.1,2.1c-0.7,1.9-3,4.3-5.4,6.7
		c-1.1,1.1-2.2,2.2-3,3.2c-1.2,1.4-2.2,2.7-3.2,4c-3.4,4.3-6,7.7-10.2,9c-3.2,0.9-7.3,1.1-12.5,0.6c-3.6-0.4-8.8-1-12.5-1.9
		c-6.1-1.4-8-5.9-10.3-11.5c-2.4-5.7-5.4-12.3-9.9-18.2c-1.7-2.2-3.5-4.2-5.2-6.1c-4.2-4.6-7.8-8.5-8.8-14.7
		c-1.2-8.1,0.9-13.3,2.8-17.9c1.4-3.3,2.7-6.4,2.5-10.2l0,0c-3.2-6.8-11.4-10.1-18.1-12.7c-1.8-0.7-3.7-1.5-5.7-1.9
		c-4.7-1-9.2-1.6-13.3-1.7v0.2c4.2,0.1,8.6,0.7,13.3,1.7C15.5,119.7,17.4,120.5,19.2,121.2z"/>
	<path class="st1" d="M115.6,5.7c0.5,2,1.1,3.9,1.7,5.8c1.3,4.2,2.4,8.2,2.9,11.8c0.4,2.5,0.4,5.2,0,7c-1,5.5-4.7,9.8-8.3,14
		c-4.1,4.8-8.4,9.7-8.7,16.6c0.4,6.1,7.3,7,14.6,7.9c1.3,0.2,2.7,0.4,4.1,0.6c5.3,0.9,11.5,2.6,17.8,4.9c2.2,0.8,4.3,1.9,6.4,2.9
		c3.9,1.9,7.6,3.8,12,4.3c0.6,0.1,1.1,0.1,1.7,0.1c2.9,0,5.5-0.8,7.7-1.6c2.2-0.8,4.1-1.6,6-2.5c4-1.7,7.7-3.4,13.5-3.9
		c1-0.1,2.1-0.2,3.1-0.2c6.3,0,11.5,1.6,16.6,3.2c4.4,1.4,8.5,2.7,12.9,2.7c0.9,0,1.7,0,2.5-0.2c6.5-0.8,11.6-4.2,15.4-10.4
		c3.3-5.4,5.3-12.3,6.9-18.9c0.5-1.9,1.3-5.6,1.6-8.2c0.3-2.5-0.1-4.3-1.2-5.5c-2-2.3-5.9-2.4-10.5-2.6c-2.1-0.1-4.2-0.1-6.4-0.4
		c-9-1.2-16.6-2.3-25-5.8c-6.9-2.9-13.8-6.5-18.4-9c-7.7-4.2-16.4-9.4-22.6-18.2h-0.2c6.2,8.9,15,14.2,22.7,18.4
		c4.6,2.5,11.5,6.1,18.4,9c8.4,3.5,16,4.7,25.1,5.9c2.1,0.3,4.3,0.3,6.4,0.4c4.5,0.1,8.5,0.3,10.4,2.5c1,1.2,1.4,3,1.1,5.4
		c-0.3,2.6-1.1,6.2-1.6,8.2c-3.2,13.2-7.8,27.3-22.1,29.1c-0.8,0.1-1.6,0.1-2.5,0.1c-4.3,0-8.4-1.3-12.8-2.7
		c-5.1-1.6-10.3-3.2-16.6-3.2c-1,0-2.1,0-3.1,0.1c-5.8,0.5-9.6,2.2-13.5,4c-1.8,0.8-3.8,1.7-6,2.4c-2.2,0.8-4.7,1.6-7.6,1.6
		c-0.6,0-1.1,0-1.7-0.1c-4.3-0.5-8-2.3-11.9-4.2c-2.1-1-4.2-2.1-6.4-2.9c-6.3-2.4-12.5-4.1-17.8-4.9c-1.4-0.2-2.7-0.4-4.1-0.6
		c-7.2-0.9-14-1.8-14.5-7.8c0.3-6.8,4.6-11.7,8.6-16.4c3.6-4.2,7.3-8.5,8.3-14c0.3-1.9,0.3-4.5,0-7.1c-0.5-3.6-1.7-7.6-2.9-11.8
		c-0.6-1.9-1.2-3.9-1.7-5.9c-0.3-1.3-0.7-2.6-1.1-3.8c-0.2-0.5-0.3-1.1-0.5-1.7H114c0.2,0.6,0.3,1.2,0.5,1.7
		C114.9,3.2,115.3,4.4,115.6,5.7z"/>
	<path class="st1" d="M13.4,12.8c1.9-3,3.7-6.6,3.7-12.6H17c0,6-1.7,9.6-3.7,12.5c-2.4,3.8-6,6-9.7,8.4c-1.1,0.7-2.3,1.4-3.4,2.2
		v0.2c1.1-0.8,2.3-1.5,3.5-2.3C7.4,18.9,11,16.6,13.4,12.8z"/>
	<path class="st1" d="M128.1,17.2c1.2,2.6,2.4,5.2,2.8,8c1.1,7.6-2.8,12.5-6.6,17.3c-2.6,3.3-5,6.3-5.8,10.1c-0.2,1-0.1,1.5-0.1,2.3
		c0,0.4,0.1,0.8,0.1,1.4v0c1,2.7,3.9,4.6,6.1,5.7c8.2,4,21.5,5.9,31.1,7.3c1.5,0.2,2.9,0.3,4.4,0.3l0,0c3.8,0,7.3-0.6,11-1.3
		c4-0.7,8-1.5,12.8-1.5c1.3,0,2.5,0.1,3.8,0.2c0.3,0,1,0.1,1.9,0.1c1.3,0.1,3,0.2,4.2,0.3c4,0.3,7.1,1,10.1,1.7
		c4,0.9,7.8,1.7,13.4,1.7c0.6,0,1.2,0,1.8,0c4.5-0.7,8.6-5.4,10.2-11.7c1.3-5.2,1-12.2-3.9-16c-5.8-4.5-22.6-8.5-31.7-9.2
		c-1.9-0.2-3.5-0.2-5.1-0.2c-1.7,0-3.5,0-5.8-0.2c-6.2-0.6-11.4-3-17.3-8.2c-7.3-6.5-11.2-11.4-16.8-21.3c-0.6-1.1-1.2-2.4-1.7-3.8
		h-0.2c0.6,1.5,1.1,2.8,1.8,3.9C154,14,158,19,165.3,25.5c5.9,5.2,11.1,7.7,17.4,8.3c2.3,0.2,4.1,0.2,5.9,0.2c1.6,0,3.1,0,5.1,0.2
		c9,0.7,25.8,4.7,31.6,9.2c4.8,3.8,5.1,10.6,3.8,15.8c-1.6,6.2-5.7,10.9-10,11.6c-0.6,0-1.2,0-1.8,0c-5.6,0-9.4-0.9-13.4-1.7
		c-3-0.7-6.2-1.4-10.1-1.7c-1.2-0.1-2.9-0.2-4.2-0.3c-0.9,0-1.6-0.1-1.9-0.1c-1.3-0.1-2.5-0.2-3.8-0.2c-4.7,0-8.8,0.7-12.8,1.5
		c-3.7,0.7-7.2,1.3-10.9,1.3l0,0c-1.5,0-2.9-0.1-4.4-0.3c-9.7-1.4-23-3.3-31.1-7.3c-2.2-1.1-5.1-2.9-6-5.6c0-0.6,0-1-0.1-1.4
		c-0.1-0.7-0.1-1.3,0.1-2.2c0.8-3.7,3.2-6.8,5.7-10c3.8-4.8,7.8-9.8,6.6-17.5c-0.4-2.8-1.6-5.5-2.8-8c-0.5-1-0.9-2.1-1.4-3.1
		c-1.5-3.7-3.2-8.7-4.3-13.9h-0.2c1.1,5.2,2.9,10.2,4.4,13.9C127.1,15.2,127.6,16.2,128.1,17.2z"/>
	<path class="st1" d="M19.9,93.9c2.6-2.9,5-6.1,7.4-9.4c3.9-5.2,8-10.6,13.2-15.1c0.4-0.3,0.7-0.7,1.1-1.1c0.3-0.3,0.7-0.7,1-1
		c3.4-3,7.3-5.4,11.1-7.7c2.6-1.6,5.3-3.3,7.9-5.2c2-1.5,4.1-3.1,6-4.6c3-2.3,6-4.7,9.1-6.8c1.5-1,3-2,4.6-3
		c7.9-5,16.9-10.8,18.2-21.1c0.7-5.5-0.7-12.5-3.8-18.8h-0.2c3.1,6.3,4.5,13.3,3.8,18.8C98,29.3,89.1,34.9,81.2,39.9
		c-1.6,1-3.1,2-4.6,3c-3.1,2.1-6.2,4.5-9.1,6.8c-2,1.5-4,3.1-6,4.6c-2.5,1.9-5.2,3.5-7.8,5.1c-3.8,2.3-7.7,4.8-11.1,7.8
		c-0.4,0.3-0.7,0.7-1,1c-0.3,0.4-0.7,0.7-1.1,1.1c-5.2,4.5-9.3,9.9-13.2,15.1c-2.5,3.3-4.8,6.4-7.4,9.3c-5.2,5.8-12.1,9.7-19.6,11.3
		v0.2C7.7,103.7,14.7,99.7,19.9,93.9z"/>
	<path class="st1" d="M8.2,86.6c2.5-3.7,2.6-10.4,2.3-15.9c-0.2-4.4-0.1-12.8,2.7-19.8c2.2-5.3,7.5-10.1,12.6-14.7
		c0.8-0.7,1.5-1.4,2.3-2.1C38.5,24.7,43.6,16.3,48,6.6c0.4-0.8,0.7-1.7,1-2.6c0.4-1.1,0.8-2.1,1.4-3.2c0.1-0.2,0.2-0.4,0.3-0.6h-0.2
		c-0.1,0.2-0.2,0.4-0.3,0.5c-0.5,1.1-0.9,2.2-1.3,3.2c-0.3,0.9-0.7,1.7-1.1,2.5c-4.5,9.7-9.5,18.1-19.8,27.4
		c-0.8,0.7-1.5,1.4-2.3,2.1c-5.1,4.6-10.4,9.4-12.7,14.8c-2.9,7-3,15.5-2.8,19.9c0.3,5.4,0.2,12.1-2.3,15.8
		c-1.8,2.6-4.7,4.5-7.9,6.1v0.2C3.4,91.1,6.4,89.3,8.2,86.6z"/>
	<path class="st1" d="M3,5.4c1.2-1.3,1.8-3.3,1.8-5.2H4.6c0,1.9-0.5,3.9-1.7,5.1C2.1,6.1,1.2,6.6,0.2,6.6v0v0.2l0,0
		C1.2,6.8,2.2,6.3,3,5.4z"/>
	<path class="st1" d="M61.4,3.2c-2.7,3.2-4.7,7.5-6.6,11.7c-0.3,0.6-0.6,1.3-0.9,1.9c-2.8,6-6.2,13.5-10,18.6c-2,2.8-5.4,4.8-9,6.9
		c-5.1,3-10.3,6.1-12.4,11.8c-0.7,2.1-0.8,4.3,0,7.2c0.7,1.6,1.9,2.4,3.7,2.4l0,0c2.8,0,6.1-2.2,7.5-3.3c2.7-2.3,5.1-5.5,7.4-8.5
		c1.2-1.6,2.5-3.4,3.8-4.9c0.6-0.7,2.8-3.2,4.7-4.3c4.3-2.6,9.9-4.5,15.8-6.6c8.2-2.9,16.7-5.8,21.9-10.7c2.8-2.5,4.5-6.5,4.6-10.9
		c0.1-4.7-1.5-9.1-4.6-12.6c-0.6-0.6-1.2-1.2-1.8-1.7h-0.3c0.7,0.5,1.3,1.2,2,1.8c3.1,3.4,4.7,7.8,4.5,12.4
		c-0.1,4.3-1.8,8.3-4.5,10.8C82,30,73.5,32.9,65.3,35.8c-5.9,2.1-11.5,4-15.9,6.6c-1.9,1.1-4.1,3.6-4.7,4.4
		c-1.3,1.6-2.6,3.3-3.8,4.9c-2.3,3.1-4.6,6.2-7.4,8.5c-1.3,1.2-4.6,3.3-7.4,3.3c-1.6,0-2.8-0.8-3.5-2.3c-0.7-2.8-0.7-5,0-7
		c2-5.6,7.2-8.7,12.3-11.7c3.6-2.1,7-4.2,9.1-7c3.8-5.1,7.2-12.6,10-18.6c0.3-0.6,0.6-1.3,0.9-1.9c1.9-4.2,3.9-8.5,6.6-11.7
		c1-1.2,2.2-2.2,3.5-3.1h-0.3C63.5,1.1,62.4,2.1,61.4,3.2z"/>
	<path class="st1" d="M136.6,51.8L136.6,51.8c0.4,0.4,0.6,0.9,0.7,1.4l0,0.1l0,0.1c1.4,1.3,3.5,2,5.9,2l0,0c3.4,0,6.8-1.4,8.4-3.6
		c1-1.3,1.3-2.8,0.9-4.3c-0.7-2.8-3.4-3.7-6.3-4.5l0,0l0,0C141.3,43.8,136.1,46.8,136.6,51.8L136.6,51.8z M146.3,43.3
		c2.9,0.8,5.5,1.6,6.2,4.3c0.4,1.4,0.1,2.9-0.9,4.1c-1.6,2.1-4.9,3.5-8.3,3.5l0,0c-2.3,0-4.4-0.7-5.7-2l0-0.1
		c-0.2-0.5-0.4-1-0.7-1.4C136.3,46.2,142.8,43.8,146.3,43.3z"/>
	<path class="st1" d="M188.1,55.1l0.1,0.1l0,0c3.1,1.9,8.1,3.2,12.6,3.2l0,0c2.9,0,8.1-0.6,9.4-4.5v0c0-1.4-0.5-2.6-1.5-3.7
		c-1.9-2-5.8-3.2-10-3.2c-5.4,0-11.2,2.1-11.3,6.7v0l0,0C187.7,54.1,187.9,54.6,188.1,55.1z M198.7,47.2c4.2,0,8,1.2,9.9,3.2
		c1,1,1.5,2.2,1.4,3.5c-1.3,3.8-6.4,4.4-9.2,4.4l0,0c-4.4,0-9.4-1.3-12.5-3.2l0-0.1c-0.2-0.5-0.4-1-0.7-1.4
		C187.7,49.2,193.4,47.2,198.7,47.2z"/>
	<path class="st1" d="M52.7,145.9c-1.1,4.6-2.2,9.4-1.7,16.6c3.6,12.5,7.8,21.9,13,28.8c1.2,1.6,2.7,3.4,4.5,4.9
		c2.6,2.1,6.4,3.4,10,3.4l0,0c3.7,0,6.8-1.3,8.8-3.6c2.2-2.5,3.1-6.2,2.5-10.9c-0.4-2.6-1.3-5.4-2.2-8c-0.9-2.7-1.9-5.4-2.2-8
		c-1.4-10.2,3-20.7,11.6-28.2c3.7-3.2,7.4-5.8,11.1-8.2c3.9-2.7,8-5.5,11.9-9c5.9-5.3,12.5-11.3,13.6-20.4v0v0
		c-0.7-4.3-2-8.7-6.9-11.9c-2.8-1.8-5.8-2.6-9.7-2.6c-3.3,0-6.6,0.6-10.2,1.3c-3.8,0.7-7.8,1.4-11.9,1.4c-1,0-2,0-3-0.1
		c-1.9-0.2-4.4-0.8-7-1.4c-3.5-0.8-7.1-1.7-9.9-1.7c-0.6,0-1.1,0-1.6,0.1c-3.8,0.6-7.9,3.9-11,6.7c-5.2,4.7-10.1,9.6-10.9,13.6
		c-0.3,1.6-0.2,4.1,0,5.9c0.3,2.8,0.9,5.1,1.5,7.4c1,4.1,2.1,8.3,1.6,15C54,140.2,53.4,143,52.7,145.9z M52.9,121.9
		c-0.6-2.3-1.2-4.6-1.4-7.4c-0.2-1.8-0.3-4.3,0-5.9c0.8-4,5.7-8.9,10.8-13.6c3.1-2.8,7.1-6.1,10.9-6.7c0.5-0.1,1-0.1,1.6-0.1
		c2.8,0,6.4,0.9,9.9,1.7c2.6,0.6,5,1.2,7,1.4c1,0.1,2,0.1,3,0.1c4.1,0,8.1-0.7,11.9-1.4c3.6-0.6,6.9-1.2,10.1-1.2
		c3.8,0,6.8,0.8,9.6,2.6c4.8,3.1,6.1,7.5,6.8,11.8c-1.1,9-7.7,15-13.5,20.3c-3.9,3.5-7.9,6.3-11.8,9c-3.7,2.5-7.4,5.1-11.1,8.3
		c-8.7,7.5-13,18.1-11.7,28.3c0.4,2.6,1.3,5.4,2.3,8c0.9,2.7,1.9,5.4,2.2,8c0.6,4.6-0.2,8.2-2.4,10.7c-2,2.3-5,3.5-8.6,3.5l0,0
		c-3.6,0-7.3-1.3-9.9-3.3c-1.8-1.5-3.3-3.3-4.5-4.9c-5.1-6.9-9.3-16.3-12.9-28.7c-0.5-7.1,0.7-11.9,1.8-16.5c0.7-2.9,1.3-5.7,1.6-9
		C55,130.2,54,126,52.9,121.9z"/>
	<path class="st1" d="M64.6,145.4c0.2,0.8,0.3,1.7,0.5,2.6c0.5,3.3,1.1,7,4.5,8.8l0,0h0c4.1-0.3,6.7-3.9,9.4-7.8c1-1.4,2-2.8,3.1-4
		c6-7,12.8-11.6,19.3-16c4.6-3.1,9-6.1,12.8-9.7c1.2-0.6,2.1-1.7,2.9-2.7c0.6-0.8,1.2-1.6,2.1-2.2c3.5-4.4,4.7-9.6,3-13.1
		c-1.1-2.2-3.8-4.9-10.5-4.9c-0.9,0-1.9,0.1-2.8,0.1c-2.2,0.2-4.6,0.7-7.3,1.2c-2.9,0.5-6.2,1.1-9.5,1.5c-0.7,0.1-1.4,0.1-2,0.2
		c-8.8,0.9-14.2,1.4-19.5,7.7c-3.8,4.5-5.8,10-6.4,17.4c-0.3,4.7-0.1,10,0.2,14.5C64.5,141.3,64.6,143.5,64.6,145.4z M64.4,124.5
		c0.6-7.4,2.6-12.9,6.3-17.3c5.3-6.2,10.3-6.7,19.4-7.7c0.7-0.1,1.3-0.1,2-0.2c3.3-0.4,6.6-1,9.5-1.5c2.6-0.5,5.1-0.9,7.2-1.1
		c1-0.1,1.9-0.2,2.8-0.2c6.6,0,9.3,2.6,10.4,4.8c1.7,3.5,0.5,8.6-2.9,12.9c-0.8,0.6-1.5,1.4-2.1,2.2c-0.8,1.1-1.6,2.1-2.8,2.7l0,0
		c-3.9,3.6-8.2,6.6-12.8,9.7c-6.6,4.5-13.3,9.1-19.4,16.1c-1.1,1.2-2.1,2.6-3.1,4c-2.7,3.8-5.2,7.4-9.2,7.7
		c-3.3-1.7-3.8-5.2-4.4-8.6c-0.2-0.9-0.3-1.8-0.5-2.6c0-1.9-0.2-4.1-0.3-6.4C64.3,134.4,64,129.2,64.4,124.5z"/>
	<path class="st1" d="M187.5,122.7c1.4,13.5,2.8,26.3,13.3,35.4c7.1,6.1,18.5,12.7,29.5,12.7l0,0c6.7,0,12.2-2.5,16.3-7.4
		c3.6-4.3,5.4-9.2,7.5-15c0.2-0.6,0.5-1.3,0.7-1.9c0.4-1.1,0.8-2.2,1.3-3.3c2.4-6.2,4.6-12.1,5.1-17c1.2-10.7-2.7-15.1-7.5-19.2
		c-7.5-6.5-17.3-7-27.6-7.5c-2.4-0.1-5.3-0.4-8.4-0.7c-4.8-0.4-10.3-0.9-14.8-0.9c-4.9,0-8.1,0.6-9.9,1.7
		c-7.3,4.9-6.5,16.7-5.8,21.5L187.5,122.7z M193.2,99.8c1.7-1.2,4.9-1.7,9.8-1.7c4.5,0,10,0.5,14.8,0.9c3.1,0.3,6,0.5,8.4,0.7
		c10.3,0.5,20.1,1,27.5,7.5c4.8,4.1,8.6,8.4,7.4,19.1c-0.6,4.8-2.8,10.7-5.1,16.9c-0.4,1.1-0.8,2.2-1.2,3.3
		c-0.3,0.6-0.5,1.3-0.7,1.9c-2.1,5.7-4,10.7-7.5,14.9c-4.1,4.8-9.5,7.3-16.2,7.3c-10.9,0-22.3-6.5-29.4-12.6
		c-10.5-9.1-11.8-21.8-13.3-35.3l-0.2-1.6C186.8,116.3,186,104.6,193.2,99.8z"/>
	<path class="st1" d="M197.6,125c1.3,11.7,2.3,21.7,11.8,29.2c4.4,3.5,12.3,7.5,20.1,7.5l0,0c3.9,0,7.2-1,9.8-3
		c7.4-5.7,10.6-17.6,11.1-26c0.6-9.7-3-18.3-9.5-22.8c-6-4.2-13.7-4.6-21.8-5.1c-1.8-0.1-3.5-0.2-5.3-0.2c-5.1,0-11.4,0.6-14.6,5.6
		c-1.8,3.8-1.7,8.2-1.6,12.5C197.6,123.5,197.6,124.2,197.6,125z M199.3,110.3c3.2-4.9,9.4-5.5,14.4-5.5c1.8,0,3.5,0.1,5.3,0.2
		c8.1,0.4,15.7,0.8,21.7,5c6.5,4.5,10,13,9.4,22.7c-0.5,8.4-3.7,20.2-11,25.8c-2.6,2-5.8,3-9.7,3l0,0c-7.8,0-15.7-4.1-20-7.5
		c-9.4-7.4-10.4-17-11.7-29c0-0.7,0-1.5-0.1-2.2C197.6,118.5,197.5,114.1,199.3,110.3z"/>
	<path class="st1" d="M81.6,123.1L81.6,123.1c0.3,0.2,0.6,0.5,0.8,0.7c0.3,0.3,0.6,0.6,1,0.8l0,0h0c5.4-1,11.5-3.8,16-7.3
		c1.8-1.4,3.9-3.3,4.3-5.7l0,0l0,0c-0.2-0.4-0.6-0.7-0.9-1c-0.2-0.2-0.5-0.4-0.7-0.7l0,0h0c-0.8-0.1-1.7-0.1-2.5-0.1
		c-4.7,0-11.1,1.4-14.9,5.4C82.5,117.3,81.5,120,81.6,123.1L81.6,123.1z M84.8,115.3c3.8-3.9,10.1-5.3,14.8-5.3c0.9,0,1.7,0,2.5,0.1
		c0.2,0.2,0.4,0.5,0.7,0.7c0.3,0.3,0.6,0.6,0.8,0.9c-0.4,2.3-2.4,4.2-4.2,5.6c-4.5,3.5-10.5,6.3-15.9,7.3c-0.3-0.2-0.6-0.5-0.9-0.8
		c-0.2-0.3-0.5-0.5-0.8-0.7C81.7,120,82.7,117.4,84.8,115.3z"/>
	<path class="st1" d="M217.3,148.8c3.2,2,6.7,3.2,10,3.2l0,0c4.3,0,7.9-1.9,10.5-5.4c6-8.2,3.3-23.8-5.3-30.3
		c-2.3-1.8-6.3-3.9-12-3.9c-1.3,0-2.7,0.1-4.1,0.4c-6,1-9.1,5.7-9,13.7C207.5,132.5,209,143.4,217.3,148.8z M216.5,113
		c1.4-0.2,2.7-0.3,4.1-0.3c5.6,0,9.5,2.1,11.9,3.8c4,3.1,7,8.3,8,14.4c1,6,0,11.8-2.8,15.6c-2.5,3.5-6.1,5.3-10.3,5.3l0,0
		c-3.2,0-6.7-1.1-9.9-3.1c-8.3-5.4-9.7-16.2-9.8-22.2C207.5,118.7,210.6,114,216.5,113z"/>
	<path class="st1" d="M24.1,201.9c0.8,1.4,1.5,2.8,2.4,3.9l0,0c1.2,1.6,3.3,4.3,6.3,3.8c3.2-0.5,7.3-4.2,6.6-9.7
		c-0.6-4.4-3.6-7.6-9.3-10.2c-0.4-0.2-0.7-0.3-1.1-0.5c-2.8-1.2-5.4-2.3-6.6-4.9c-1.3-5.2-1.5-12.3-1.8-19.8
		c-0.2-6.2-0.4-12.6-1.3-18.1c-1.6-10.6-7-16.8-16.5-19.2c-0.8-0.2-1.7-0.4-2.6-0.5v0.2c0.9,0.1,1.8,0.3,2.6,0.5
		c9.4,2.4,14.8,8.6,16.4,19.1c0.8,5.5,1.1,11.9,1.3,18.1c0.3,7.5,0.5,14.6,1.8,19.8c1.3,2.7,3.9,3.8,6.7,5c0.4,0.2,0.8,0.3,1.1,0.5
		c5.7,2.5,8.6,5.7,9.2,10c0.7,5.4-3.3,9.1-6.4,9.5c-2.8,0.4-4.9-2.2-6.1-3.7l0,0c-0.9-1.1-1.6-2.5-2.4-3.9c-2.5-4.4-5-9.1-12.3-7.8
		c-3.4,0.6-7.3,2.4-11.8,5.6v0.2c4.5-3.2,8.4-5.1,11.8-5.6C19.2,193,21.7,197.5,24.1,201.9z"/>
	<path class="st1" d="M4.9,176.7c4.2-4.6,6.5-11.5,6.2-18.8c-0.3-7.1-2.9-13.5-7.1-17.3c-1.2-0.9-2.5-1.5-3.8-1.8v0.2
		c1.3,0.3,2.5,0.9,3.7,1.7c4.1,3.8,6.7,10.2,7,17.2c0.3,7.3-1.9,14.1-6.1,18.7c-1.4,1.5-3,2.8-4.6,3.9v0.2
		C1.9,179.6,3.5,178.3,4.9,176.7z"/>
	<path class="st1" d="M175.7,177.9c-0.2-1.3-0.8-2.8-1.3-4c-4-10-13.4-20.4-20.3-26.4c-4.7-4.1-8.6-6.4-11.6-7
		c-0.6-0.1-1.3-0.2-2.1-0.2c-8.2,0-18.2,8.3-18.8,15.6c0,0.4,0.1,0.7,0.2,1.1c0.1,0.5,0.3,1.1,0.2,1.7v0l0,0
		c2.9,6.8,6.2,13.3,9.8,19.2c1.6,2.7,3.3,5.2,5.4,7.4c5.2,5.2,14.2,8.8,21.9,8.8l0,0c4.3,0,7.8-1.1,10.6-3.2
		C174.6,187.4,176.5,183,175.7,177.9z M159.4,193.9L159.4,193.9c-7.7,0-16.6-3.6-21.8-8.8c-2.1-2.1-3.8-4.7-5.4-7.3
		c-3.6-5.9-6.9-12.3-9.8-19.1c0-0.6-0.1-1.2-0.2-1.7c-0.1-0.3-0.2-0.7-0.2-1c0.6-7.2,10.6-15.4,18.6-15.4c0.7,0,1.4,0.1,2,0.2
		c3,0.6,6.8,3,11.5,7c6.8,5.9,16.2,16.3,20.2,26.3c0.5,1.2,1.1,2.7,1.3,4c0.8,5-1.2,9.3-5.7,12.8
		C167.1,192.8,163.6,193.9,159.4,193.9z"/>
	<path class="st1" d="M157.9,162c-4.1-3.8-9-6.5-12.8-7.1c-0.7-0.1-1.4-0.2-2-0.2c-2.4,0-4.3,0.7-5.6,2.2c-1.6,1.7-2.4,4.3-2.3,7.5
		c1.7,7.2,3.3,13,8.4,17.1c3.2,2.6,8.1,4.3,12.4,4.3l0,0c5.2,0,8.9-2.4,9.9-6.6c0.3-1.2,0.3-3,0.1-4.3
		C165.3,170.8,162.3,166,157.9,162z M165.6,179.1c-1.1,4.1-4.6,6.4-9.7,6.4l0,0c-4.3,0-9.1-1.7-12.3-4.3c-5-4.1-6.6-9.8-8.3-16.9
		c-0.1-3.1,0.7-5.7,2.3-7.3c1.3-1.4,3.2-2.1,5.5-2.1c0.6,0,1.3,0.1,2,0.2c7.9,1.3,19.3,11.1,20.6,19.9
		C165.9,176.1,165.9,177.9,165.6,179.1z"/>
	<path class="st1" d="M203.7,194.4L203.7,194.4L203.7,194.4c-0.6-0.1-1.1-0.1-1.6-0.1c-1.1,0-2.1,0.2-3.3,0.5
		c-6,1.7-12.1,7-14.1,12.1c-1.4,3.6-0.8,7.6-0.3,11.5c0.5,3.6,1,7,0,9.9c-1.6,4.6-5.7,7.5-9.6,10.3c-4.2,3-8.6,6-9.6,11
		c-0.6,3.6,0.3,7,2.7,9.8c3.4,4,9.5,6.6,15.7,6.6l0,0c4,0,7.5-1.1,10.2-3.1c2.1-1.6,3.5-3.8,5.1-6l0.2-0.4c1.5-3,2-6.6,2.5-10.4
		c0.5-3.3,1-6.7,2.1-10.1c0.7-2,1.4-3.7,2.1-5.3c2.2-5,4-9.3,3.1-19.8C208.6,204.8,207.5,197.4,203.7,194.4z M205.8,230.6
		c-0.7,1.6-1.4,3.3-2.1,5.3c-1.2,3.4-1.6,6.9-2.1,10.2c-0.5,3.8-1.1,7.4-2.5,10.3l-0.2,0.3c-1.6,2.4-3,4.4-5,6c-2.6,2-6.1,3-10.1,3
		c-6.1,0-12.2-2.6-15.5-6.5c-2.3-2.8-3.3-6.1-2.6-9.6c1.1-4.9,5.2-7.8,9.5-10.9c4-2.8,8.1-5.7,9.7-10.4c1-3,0.5-6.4,0-10
		c-0.6-3.9-1.2-7.9,0.2-11.4c2-5.1,8-10.3,13.9-12c1.2-0.3,2.2-0.5,3.3-0.5c0.5,0,1,0,1.5,0.1c3.7,3,4.8,10.3,5.3,16.3
		C209.8,221.4,207.9,225.6,205.8,230.6z"/>
	<path class="st1" d="M28.8,232.1c-0.9-0.8-2-1.2-3.1-1.2c-1.9,0-4,1.2-5.8,3.3c-2.2,2.6-3.4,5.9-3,8.3c0.9,4.1,4.6,6.2,7.8,6.2l0,0
		c2.2,0,4.2-1,5.5-2.7C32.7,242.3,32,234.8,28.8,232.1z M30,245.8c-1.3,1.7-3.1,2.7-5.3,2.7l0,0c-3.1,0-6.7-2.1-7.6-6
		c-0.4-2.3,0.8-5.6,3-8.1c1.7-2,3.8-3.2,5.6-3.2c1.1,0,2.1,0.4,3,1.1C31.8,234.9,32.5,242.3,30,245.8z"/>
	<path class="st1" d="M98,257.1c-0.1-0.3-0.3-0.6-0.4-0.9l0,0l0,0c-0.7-0.5-1.6-0.8-2.5-0.8c-1.4,0-2.8,0.7-3.8,1.7
		c-0.9,1-1.4,2.3-1.3,3.6l0,0c0.7,1.3,1.8,2.1,3.3,2.1l0,0c2.2,0,4.9-1.9,5.2-4.5v0v0C98.4,257.8,98.2,257.4,98,257.1z M93.3,262.5
		L93.3,262.5c-1.4,0-2.5-0.7-3.1-1.9c-0.1-1.2,0.3-2.4,1.2-3.4c1-1,2.3-1.7,3.7-1.7c0.8,0,1.6,0.3,2.3,0.8c0.1,0.3,0.3,0.6,0.4,0.9
		c0.2,0.3,0.4,0.6,0.4,1C98,260.7,95.4,262.5,93.3,262.5z"/>
	<path class="st1" d="M354.7,3.7c4.6,2.2,10,2.5,14.5,0.6c2.2-0.9,4.2-2.4,5.6-4.1h-0.2c-1.4,1.7-3.2,3.1-5.4,4
		c-4.4,1.8-9.8,1.6-14.3-0.6c-1.5-0.7-2.9-1.8-4.2-3.4h-0.3C351.7,1.8,353.2,3,354.7,3.7z"/>
	<path class="st1" d="M191.9,11.5c1.8,1.3,3.5,2.6,5.1,3.9c4,3.1,7.8,6.1,11.9,7.5c4.6,2.3,9.1,3.5,13.3,3.5c3.5,0,6.9-0.8,10.1-2.4
		c9.4-4.7,14.6-15,16.6-23.8h-0.2c-2,8.7-7.2,18.9-16.5,23.6c-7,3.5-14.8,3.1-23.2-1.1c-4.1-1.4-7.9-4.3-11.9-7.4
		c-1.6-1.3-3.4-2.6-5.2-3.9c-1.9-1.4-3.9-2.7-5.9-4c-3.5-2.3-7-4.6-10-7.2h-0.3c3.1,2.6,6.6,4.9,10.2,7.3
		C187.9,8.8,189.9,10.1,191.9,11.5z"/>
	<path class="st1" d="M259,15.1c1.3,3.1,4.1,4.6,8.5,4.6c2.3,0,4.6-0.4,6.5-0.7h0.1c0.4-0.1,0.9-0.1,1.3-0.1c1.8,0,3.6,0.5,5.3,1
		c0.9,0.3,1.8,0.5,2.8,0.7c0.7,0.2,1.5,0.3,2.2,0.5c3,0.6,6.1,1.2,8.9,2.5c1.1,0.5,2.2,1,3.4,1.5c5.5,2.4,11.2,4.8,14.8,9.6
		c0.2,0.3,0.4,0.6,0.6,0.9c2.6,3.8,4.8,7.9,6.9,11.9c2.4,4.5,4.9,9.1,7.9,13.3c2.9,4.1,6.8,8.6,10.6,13c1.3,1.5,2.6,3,3.8,4.4
		c6,7.1,11.7,13.9,22.2,13.9h0c2.7,0,5.5-0.4,8.7-1.3c9.1-2.4,25.1-8.6,30.6-21.8c1.5-3.5,2.4-8.4,3.4-13.6c0.8-3.9,1.6-8,2.6-11.3
		v-0.6c-1.1,3.5-2,7.8-2.8,11.9c-1,5.2-2,10.1-3.4,13.6c-5.5,13.2-21.4,19.2-30.5,21.7c-3.2,0.9-6,1.3-8.7,1.3h0
		c-10.4,0-16.1-6.7-22-13.8c-1.2-1.4-2.5-2.9-3.8-4.4c-3.8-4.4-7.7-8.9-10.6-13c-3-4.2-5.5-8.8-7.9-13.3c-2.1-4-4.4-8.1-7-11.9
		c-0.2-0.3-0.4-0.6-0.7-0.9c-3.7-4.8-9.4-7.3-14.9-9.7c-1.1-0.5-2.3-1-3.4-1.5c-2.8-1.3-6-1.9-9-2.5c-0.7-0.1-1.5-0.3-2.2-0.4
		c-0.9-0.2-1.8-0.5-2.7-0.7c-1.8-0.5-3.6-1.1-5.4-1.1c-0.5,0-0.9,0-1.3,0.1l-0.1,0c-1.9,0.3-4.2,0.7-6.4,0.7c-4.4,0-7.1-1.4-8.3-4.4
		c-1.3-3.1-0.9-8.2-0.5-12.8c0.1-0.7,0.1-1.4,0.2-2h-0.2c0,0.6-0.1,1.3-0.1,2C258.2,6.8,257.8,12,259,15.1z"/>
	<path class="st1" d="M337.7,6c5.6,7.6,15.7,12.2,26.8,12.2c2.8,0,5.5-0.3,8-0.8c9.9-2.2,13.1-8.9,14.5-17.2h-0.2
		c-0.4,2.6-1.1,5.1-2,7.3c-2.3,5.3-6.2,8.4-12.3,9.7c-2.5,0.6-5.2,0.8-8,0.8c-11.1,0-21-4.5-26.6-12.1c-0.6-1.6-1.2-3.6-1.7-5.7H336
		C336.5,2.4,337,4.3,337.7,6L337.7,6z"/>
	<path class="st1" d="M283.7,10c5,0.7,9.8,2.2,14.5,3.7c3,0.9,6.1,1.9,9.2,2.7c2,0.5,4,0.9,5.8,1.1c1.8,0.3,3.4,0.4,4.8,0.4l0,0
		c2.8,0,4.4-0.6,4.9-1.7c1.4-3,2.5-9.6,2.5-16h-0.2c-0.1,6.4-1.1,12.9-2.5,15.9c-0.5,1.1-2.1,1.6-4.7,1.6c-1.3,0-2.9-0.1-4.7-0.4
		c-1.8-0.3-3.8-0.7-5.8-1.1c-3.1-0.8-6.2-1.7-9.2-2.7c-4.6-1.4-9.5-3-14.5-3.7c-5-0.7-8.9-4.1-11.3-9.6h-0.2
		C274.6,5.8,278.6,9.3,283.7,10z"/>
	<path class="st1" d="M394.6,5.1c-0.3,7-0.5,13.1-5.1,16.6c-4.8,3.7-13.3,4.8-19.4,5.6c-0.6,0.1-1.2,0.2-1.8,0.2
		c-1.1,0.1-2.2,0.2-3.3,0.2l0,0c-6.3,0-13-2.1-19.5-4.2c-5.8-1.8-11.8-3.7-17.4-4h0l0,0c-3.2,0.9-4,4.3-3.7,7.2
		c0.9,11.3,4.9,20.5,13.7,31.9c1.8,2.3,3.5,4.6,5.1,6.8c2.8,3.8,5.3,7.4,8.4,10.8c4.5,5.1,10.2,7.7,16.9,7.7l0,0
		c7.8,0,16.5-3.6,24-9.9c7.7-8.3,8.8-19.4,9.4-30c0-0.8,0.1-1.7,0.1-2.6c0.1-4.3,0.2-9.6,2.3-12.2c1.8-2.3,4-4.1,6.2-5.6v-0.2
		c-2.3,1.6-4.5,3.4-6.4,5.8c-2.1,2.6-2.2,8-2.4,12.3c0,0.9,0,1.8-0.1,2.6c-0.5,10.5-1.7,21.6-9.3,29.8c-7.4,6.3-16.1,9.9-23.8,9.9
		c-6.6,0-12.3-2.6-16.8-7.6c-3-3.4-5.6-7-8.4-10.8c-1.6-2.2-3.3-4.5-5.1-6.8c-8.8-11.3-12.8-20.5-13.7-31.8c-0.3-2.8,0.4-6.1,3.5-7
		c5.6,0.3,11.5,2.2,17.3,4c6.5,2,13.2,4.2,19.5,4.2l0,0c1.1,0,2.3-0.1,3.3-0.2c0.6-0.1,1.2-0.2,1.8-0.2c6.2-0.8,14.7-1.9,19.5-5.6
		c4.7-3.6,5-9.7,5.2-16.8c0.1-1.5,0.1-3,0.2-4.5c0-0.1,0-0.3,0-0.4h-0.2c0,0.1,0,0.3,0,0.4C394.7,2.1,394.6,3.6,394.6,5.1z"/>
	<path class="st1" d="M397.5,99.3L397.5,99.3c-1.3,1.1-3.3,2.6-3.1,4.8l0,0l0,0c0.4,0.3,0.8,0.7,1.1,1.1l0,0h0
		c2.4,0.5,4.9,0.7,7.3,0.7l0,0c2.5,0,5-0.3,7.4-0.8v-0.2c-2.4,0.5-4.9,0.8-7.4,0.8c-2.4,0-4.9-0.2-7.2-0.7c-0.3-0.4-0.7-0.7-1.1-1.1
		c-0.2-2,1.6-3.5,3-4.6l0,0c2.3-1.8,5.3-3.2,8.6-4.7c1.4-0.6,2.8-1.3,4.2-2v-0.2c-1.4,0.7-2.8,1.4-4.2,2
		C402.9,96,399.9,97.4,397.5,99.3z"/>
	<path class="st1" d="M405.8,1.8c0.2,2.6,2.3,5,4.6,5V6.6c-2.1,0-4.2-2.2-4.4-4.8c-0.1-0.6-0.1-1.1,0-1.6h-0.2
		C405.8,0.7,405.8,1.3,405.8,1.8z"/>
	<path class="st1" d="M379.3,37c-1.3,0-2.6,0.1-3.9,0.4c-2.9,0.6-6,1.5-9.3,2.4c-3.7,1.1-7.5,2.2-11.2,2.8c-3.4,0.6-4.8,2.1-4.4,4.6
		v0c1.2,2.5,2.1,5.3,3.1,8.2c2.1,6.4,4.2,13,9.5,16.4c2.5,1.6,5.5,2.5,8.7,2.5l0,0c5.2,0,10.6-2.2,14.4-5.9c3.1-3,5.4-8,6.1-13.2
		c0.7-5.5-0.4-10.8-3.1-14.4C387.3,38.5,383.6,37,379.3,37z M386,68.4c-3.7,3.7-9.1,5.8-14.2,5.8c-3.2,0-6.2-0.8-8.6-2.4
		c-5.2-3.4-7.3-10-9.4-16.3c-1-2.9-1.8-5.7-3-8.2c-0.4-2.4,1-3.8,4.3-4.3c3.6-0.7,7.5-1.8,11.2-2.9c3.3-1,6.4-1.9,9.3-2.4
		c1.3-0.3,2.6-0.4,3.9-0.4c4.2,0,7.9,1.5,9.7,3.8C394.8,48.8,392.1,62.4,386,68.4z"/>
	<path class="st1" d="M161.5,121.7c1,1.8,2,3.7,2.8,5.6c0.7,1.6,1.5,3.3,2.2,4.9c4.4,10.1,9,20.5,15.6,28.8c2.5,3.2,5.6,6.3,8.6,9.2
		c2.9,2.8,5.5,5.5,7.7,8.2c1.1,1.3,1.9,2.7,2.8,4.1c1.8,2.8,3.6,5.5,6.5,7.4l0,0l0.8-0.1c11-0.7,20.6-1.2,30.7-3.1
		c7.2-1.3,12.3-2.7,15.2-4.2c5.8-3,7.4-8.4,9.1-14c0.2-0.6,0.4-1.2,0.5-1.8c2.5-8,6.1-16.2,15.3-21.3l0,0c0.1-0.1,0.1-0.2,0.2-0.3
		c1.9-1,3.8-2,5.8-3.1c3.4-1.8,6.8-3.6,10.3-5.4c1.5-0.8,2.9-1.6,4.4-2.3c2.2-1.2,4.6-2.4,6.9-3.6c1.6-0.8,3-1.8,4.4-2.9
		c0.3-0.3,0.7-0.5,1-0.8c1.3-0.9,2.7-1.9,4.3-2.5c3-1.2,6.4-1.3,9.7-1.5c2.8-0.1,5.7-0.3,8.4-1.1c2.6-0.8,4.4-1.4,5.9-3.6
		c4.9-7.1,2.4-12.4-1.6-19.1C335,92.3,329.9,86.8,324,83c-1.1-0.7-2.2-1.2-3.3-1.7c-1.2-0.6-2.5-1.2-3.6-2c-1.3-0.9-2.6-1.9-3.8-2.9
		c-1-0.8-2-1.6-3.1-2.4c-4.3-3.1-9.4-6.5-15.1-8.5c-1.9-0.7-4.2-0.8-5.7-0.8c-1.6,0-3.2,0.1-4.6,0.4c-1.8,0.3-3.2,1.1-4.7,2
		c-0.6,0.4-1.3,0.7-2,1.1c-0.8,0.3-1.6,0.6-2.3,0.9c-1,0.3-2,0.7-3,1.2c-2.3,1.3-4.6,2.8-6.8,4.2c-2.1,1.4-4.3,2.8-6.5,4.1
		c-10.6,5.9-19.6,9.3-28.4,10.5c-2.6,0.4-5.3,0.6-7.9,0.6c-3.3,0-6.6-0.3-9.7-0.9c-2.5-0.5-5-1.2-7.5-1.9c-4.3-1.2-8.8-2.5-13.2-2.5
		c-2.4,0-4.6,0.4-6.7,1.1c-4.2,1.5-7.9,4.7-11.9,8.1c-2,1.7-4.1,3.5-6.4,5.2c-0.5,0.4-1.2,0.8-1.9,1.3c-1.6,1.1-3.6,2.5-5.3,4
		c-3.2,2.7-4.1,5.2-3,8.7C158.4,115.7,159.9,118.6,161.5,121.7z M160.6,104.3c1.7-1.5,3.7-2.8,5.3-4c0.7-0.5,1.4-0.9,1.9-1.3
		c2.3-1.7,4.4-3.5,6.4-5.2c3.9-3.4,7.6-6.5,11.8-8.1c2-0.7,4.2-1.1,6.6-1.1c4.4,0,8.8,1.3,13.1,2.5c2.5,0.7,5,1.4,7.5,1.9
		c3.2,0.6,6.5,0.9,9.8,0.9c2.6,0,5.3-0.2,7.9-0.6c8.9-1.3,17.9-4.6,28.5-10.6c2.2-1.3,4.4-2.7,6.5-4.1c2.2-1.4,4.4-2.9,6.7-4.2
		c0.9-0.5,1.9-0.9,2.9-1.2c0.8-0.3,1.6-0.5,2.3-0.9c0.7-0.3,1.4-0.7,2-1.1c1.5-0.8,2.9-1.6,4.7-1.9c1.4-0.3,3-0.4,4.6-0.4
		c1.5,0,3.8,0.2,5.7,0.8c5.7,2,10.8,5.4,15.1,8.5c1,0.8,2.1,1.6,3.1,2.3c1.3,1,2.5,1.9,3.8,2.9c1.2,0.8,2.4,1.4,3.7,2
		c1.1,0.5,2.2,1,3.3,1.7c5.9,3.8,11,9.3,15.2,16.3c4,6.7,6.4,12,1.6,19c-1.5,2.2-3.3,2.8-5.8,3.6c-2.7,0.8-5.6,0.9-8.4,1.1
		c-3.3,0.1-6.6,0.3-9.7,1.5c-1.6,0.6-3,1.6-4.3,2.5c-0.4,0.3-0.7,0.5-1.1,0.8c-1.4,1-2.8,2.1-4.4,2.9c-2.3,1.1-4.6,2.4-6.9,3.6
		c-1.4,0.8-2.9,1.6-4.4,2.3c-3.4,1.8-6.9,3.6-10.2,5.4c-1.9,1-3.9,2.1-5.8,3.1l0,0c-0.1,0.1-0.2,0.2-0.2,0.3
		c-9.3,5.2-12.9,13.3-15.4,21.4c-0.2,0.6-0.4,1.2-0.5,1.8c-1.7,5.6-3.3,11-9.1,13.9c-2.8,1.5-7.9,2.9-15.1,4.2
		c-10.2,1.8-19.7,2.4-30.7,3.1l-0.8,0c-2.8-1.8-4.6-4.5-6.4-7.3c-0.9-1.4-1.8-2.8-2.8-4.1c-2.2-2.7-4.9-5.4-7.7-8.2
		c-3-3-6.1-6.1-8.6-9.2c-6.6-8.3-11.2-18.7-15.6-28.7c-0.7-1.6-1.5-3.3-2.2-4.9c-0.9-1.9-1.8-3.8-2.8-5.6c-1.6-3.1-3.1-6-4-8.8
		C156.6,109.5,157.5,107,160.6,104.3z"/>
	<path class="st1" d="M178.3,134.6l0.4,1.4c3.9,14.3,9.6,22.8,21.1,31.3l0.3,0.2c6.2,4.5,11.6,8.5,17.6,10.4c3,1,6.6,1.5,10.5,1.5
		c0,0,0,0,0,0c5.2,0,10.5-0.9,14.1-2.4c9.7-4,13.2-12.4,17.3-22.2c5.3-12.8,14.7-29.4,28.9-35.7c2.6-1.1,5.1-1.4,7.7-1.6
		c1-0.1,2.1-0.2,3.1-0.3c4-0.6,8.5-1.4,13.8-2.5c0.7-0.1,1.5-0.3,2.2-0.5c3.8-0.9,8.9-3.3,10.6-7.3c1.2-2.9,1.1-5.6-0.5-8
		c-4.6-7-20.6-9.4-27.2-9.4h-0.1c-2.9,0-5.9,0.3-8.7,0.6c-1.6,0.2-3.3,0.4-4.9,0.5c-2.8,0.2-5,1-7.8,2.7c-2.9,1.8-5.9,2.6-9.6,2.6
		c-2.8,0-5.6-0.5-8.6-0.9c-0.9-0.2-1.8-0.3-2.8-0.4c-3.9-0.6-8.1-0.8-13.2-0.8c-3.2,0-6.3,0.1-9.4,0.2c-3.1,0.1-6.2,0.2-9.3,0.2
		c-5.6,0-10.2-0.3-14.4-1.1c-1.2-0.2-2.5-0.5-4-0.9c-3-0.7-6.4-1.5-9.9-1.5c-1.9,0-3.6,0.2-5.2,0.7c-7.9,2.4-14.5,12.1-15.8,19.6
		c-0.5,2.8-0.4,5.7,0.2,9.1C175.8,125.2,177,129.8,178.3,134.6z M174.9,110.9c1.2-7.5,7.8-17.1,15.6-19.5c1.6-0.5,3.3-0.7,5.1-0.7
		c3.4,0,6.8,0.8,9.8,1.5c1.4,0.3,2.7,0.7,4,0.9c4.2,0.7,8.7,1.1,14.4,1.1c3.1,0,6.2-0.1,9.3-0.2c3.1-0.1,6.3-0.2,9.4-0.2
		c5.1,0,9.2,0.3,13.1,0.8c0.9,0.2,1.9,0.3,2.8,0.4c3,0.5,5.8,0.9,8.6,0.9c3.7,0,6.9-0.8,9.8-2.6c2.7-1.7,5-2.5,7.7-2.7
		c1.6-0.1,3.3-0.3,4.9-0.5c2.9-0.3,5.8-0.6,8.7-0.6h0.1c6.5,0,22.4,2.4,27,9.3c1.5,2.3,1.7,4.9,0.5,7.8c-1.6,3.9-6.6,6.3-10.4,7.1
		c-0.7,0.2-1.5,0.3-2.2,0.5c-5.2,1.1-9.7,1.9-13.8,2.5c-1.1,0.1-2.1,0.2-3.1,0.3c-2.6,0.3-5.2,0.5-7.7,1.6
		c-14.3,6.2-23.7,22.9-29,35.8c-4.1,9.8-7.6,18.2-17.1,22.1c-3.6,1.5-8.9,2.4-14.1,2.4h0c-3.9,0-7.5-0.5-10.5-1.4
		c-5.9-1.9-11.3-5.8-17.5-10.4l-0.3-0.2c-11.5-8.4-17.2-16.9-21-31.2l-0.4-1.4c-1.3-4.8-2.5-9.4-3.4-14.5
		C174.5,116.6,174.5,113.7,174.9,110.9z"/>
	<path class="st1" d="M393,131.1L393,131.1c-0.5,0.8-0.9,1.5-1.3,2.1c-1.3,2.1-2.1,3.5-2.5,7c-0.3,2.8-0.2,5.7-0.1,8.5
		c0.1,3.3,0.3,6.7-0.3,10.1c-2,11.9-11.4,24.2-22.1,28.6c-1,0.4-2.4,1-3.4,1.1c-0.8,0.1-1.5,0.2-2.2,0.2l0,0
		c-6.2,0-7.7-6.1-9.1-12.1c-0.3-1.3-0.6-2.7-1-4c-1.4-4.9-3.3-8.1-6.2-10.5c-2.9-2.4-6.8-3.9-12.6-5c-2.4-0.4-4.5-0.6-6.6-0.6
		c-4.1,0-7.9,0.8-12.9,2.5c-0.2,0.1-0.4,0.1-0.6,0.2c-2.8,1-5.2,1.8-6.8,4.4c-3.2,5-5.8,13.2-4.6,18.9c1.2,5.6,5.3,6.8,9.6,7.9
		c0.8,0.2,1.7,0.5,2.5,0.7c1.3,0.4,2.4,0.9,3.3,1.4c6.5,3.7,13.7,7,22.7,10.5c7.6,2.9,11.3,9.4,14.9,15.7
		c3.5,6.1,7.1,12.3,14.2,15.3c1.1,0.5,2.3,0.7,3.7,0.7l0,0c1.6,0,3.3-0.3,5.2-1c5.1-1.8,9.7-7.3,13.1-11.8
		c5.3-7.2,12-16.1,19.8-21.8c0.2-0.1,0.4-0.3,0.6-0.4v-0.2c-0.2,0.2-0.5,0.3-0.7,0.5c-7.9,5.7-14.5,14.7-19.9,21.8
		c-3.4,4.5-7.9,10-13,11.8c-1.9,0.6-3.6,1-5.1,1l0,0c-1.3,0-2.5-0.2-3.6-0.7c-7.1-3-10.7-9.2-14.1-15.2c-3.6-6.3-7.3-12.8-15-15.7
		c-9-3.5-16.2-6.8-22.7-10.5c-0.9-0.5-2-1-3.3-1.4c-0.8-0.3-1.7-0.5-2.5-0.7c-4.3-1.2-8.3-2.3-9.5-7.8c-1.2-5.7,1.4-13.8,4.6-18.8
		c1.6-2.5,4-3.4,6.7-4.3c0.2-0.1,0.4-0.2,0.7-0.2c5-1.8,8.8-2.5,12.9-2.5c2.1,0,4.3,0.2,6.6,0.6c11.2,2.1,15.9,5.9,18.7,15.3
		c0.4,1.3,0.7,2.6,1,3.9c1.4,6,2.9,12.2,9.3,12.2l0,0c0.7,0,1.4-0.1,2.2-0.2c1-0.2,2.4-0.7,3.4-1.2c5.3-2.2,10.4-6.3,14.5-11.6
		c4-5.2,6.8-11.3,7.7-17.1c0.5-3.4,0.4-6.8,0.3-10.1c-0.1-2.8-0.2-5.7,0.1-8.5c0.4-3.5,1.2-4.8,2.5-6.9c0.4-0.6,0.8-1.3,1.3-2.1
		c3.7-3,8.2-4.6,13.2-4.6c1.3,0,2.7,0.1,4,0.3v-0.2c-1.4-0.2-2.7-0.3-4-0.3C401.3,126.4,396.8,128,393,131.1z"/>
	<path class="st1" d="M399.8,145.1c-1,2.9-1.2,5.8-1.4,9.2c-0.1,1.2-0.1,2.4-0.3,3.8c-0.5,5.2-1.5,10.5-2.4,15.7
		c-1,5.1-1.9,9.9-2,13.7v0l0,0c0.6,0.4,1.2,0.9,2,0.9c0.1,0,0.3,0,0.4-0.1l0,0c1.9-1.1,3.9-2.1,5.9-3.1c2.8-1.4,5.7-2.8,8.3-4.5
		v-0.2c-2.6,1.8-5.5,3.2-8.4,4.6c-2,1-4,2-5.9,3.1c-0.1,0-0.2,0-0.3,0c-0.7,0-1.3-0.4-1.9-0.8c0.2-3.8,1.1-8.6,2-13.6
		c1-5.2,2-10.5,2.4-15.7c0.1-1.3,0.2-2.6,0.3-3.8c0.2-3.4,0.4-6.3,1.4-9.2c1.3-3.9,4.6-6.5,8.3-6.5c0.7,0,1.4,0.1,2.1,0.3v-0.2
		c-0.7-0.2-1.4-0.3-2.1-0.3C404.5,138.5,401.2,141.1,399.8,145.1z"/>
	<path class="st1" d="M326.3,170.8c-3.6,0-7.2,1.8-7.2,5.7v0c1.1,3.9,6.5,8.6,11.1,8.6l0,0c1.2,0,2.2-0.3,3.1-0.9
		c1.3-0.9,2.1-2.1,2.4-3.7c0.4-2-0.2-4.4-1.5-6.2C332.6,172.1,329.5,170.8,326.3,170.8z M335.5,180.5c-0.3,1.5-1.1,2.8-2.4,3.6
		c-0.9,0.6-1.9,0.9-3,0.9c-4.6,0-9.9-4.6-10.9-8.4c0-3.8,3.6-5.5,7.1-5.5c3.2,0,6.2,1.3,7.7,3.4
		C335.3,176.1,335.9,178.5,335.5,180.5z"/>
	<path class="st1" d="M388.8,194.4L388.8,194.4c-0.4-0.1-0.8-0.2-1.2-0.2c-1.6,0-3.3,1-5,2c-0.6,0.4-1.3,0.7-1.9,1
		c-0.4,0.2-0.7,0.4-1.1,0.5c-5.5,2.7-13,6.4-12.5,15.2c0.8,2.7,3,5.5,6.4,5.5l0,0c0.3,0,0.6,0,1-0.1c6.1-2.5,9.8-9.7,12.3-15.6
		l0.2-0.4C388.2,199.6,389.5,196.6,388.8,194.4L388.8,194.4z M386.9,202.2l-0.2,0.4c-2.5,5.9-6.2,13-12.2,15.5
		c-0.3,0-0.6,0.1-0.9,0.1l0,0c-3.3,0-5.5-2.7-6.2-5.3c-0.5-8.6,6.9-12.3,12.4-15c0.4-0.2,0.8-0.4,1.1-0.5c0.6-0.3,1.3-0.7,1.9-1
		c1.6-1,3.3-1.9,4.9-1.9c0.3,0,0.7,0,1,0.1C389.3,196.6,388,199.6,386.9,202.2z"/>
	<path class="st1" d="M321.3,261.7c-1.8-1.7-3.6-2.5-5.4-2.5c-4.2,0-6.9,4.8-7.5,9.5c-0.4,3.6-0.3,7.4,0.3,10.6
		c0.6,3.1,1.8,4.7,4.4,5.6c0.6,0.2,1.3,0.4,2.1,0.6c1.4,0.3,2.6,0.4,3.7,0.4l0,0c3,0,5.2-1,6.5-3.1c1.5-2.3,1.3-7.8,0.9-10.6
		C325.8,267.9,324,264.1,321.3,261.7z M325.3,282.5c-1.3,2-3.4,3-6.3,3c-1.1,0-2.3-0.1-3.7-0.4c-0.9-0.2-1.6-0.4-2.1-0.6
		c-2.5-0.9-3.7-2.3-4.3-5.4c-0.6-3.1-0.7-7-0.3-10.5c0.6-4.6,3.3-9.3,7.3-9.3c1.7,0,3.5,0.8,5.3,2.5c2.6,2.4,4.4,6.2,5,10.2
		C326.5,274.7,326.8,280.2,325.3,282.5z"/>
	<path class="st1" d="M20.3,325c1.8-0.3,3.4-0.7,4.8-1.1c1.8-0.4,3.5-0.9,5.8-1.2c2-0.3,4.2-0.5,6.3-0.6c4.7-0.3,9.5-0.6,13.6-2.8
		c5.2-2.7,5.7-9.6,4-15.3c-3-9.6-6.9-16.2-11.8-20.2c-1.9-1.6-3.8-3.4-5.5-5.2c-3.6-3.5-7.2-7.2-12-9.1c-3.7-1.5-7.9-2.6-11.9-3.6
		c-2.5-0.6-5-1.3-7.4-2c-1.1-0.3-2.3-0.8-3.6-1.3c-0.7-0.3-1.4-0.5-2.2-0.8v0.2c0.7,0.3,1.4,0.5,2.1,0.8c1.3,0.5,2.5,0.9,3.6,1.3
		c2.4,0.7,4.9,1.4,7.4,2c4.1,1.1,8.3,2.2,11.9,3.6c4.7,1.9,8.4,5.6,12,9.1c1.8,1.8,3.6,3.6,5.6,5.2c4.9,4,8.8,10.6,11.8,20.1
		c1.7,5.6,1.2,12.4-3.9,15c-4.1,2.1-8.9,2.5-13.6,2.8c-2.1,0.1-4.3,0.3-6.3,0.6c-2.2,0.4-4,0.8-5.8,1.2c-1.5,0.4-3,0.7-4.8,1.1
		c-3.3,0.6-6.7,1.1-10,1.5c-3.5,0.5-6.9,0.9-10,1.5v0.2c3.1-0.6,6.5-1.1,10-1.5C13.5,326.1,16.9,325.7,20.3,325z"/>
	<path class="st1" d="M16,313.5c4.3-1.2,8.8-2.5,13-4.3c4.2-1.8,8.4-4,10.3-8.2c2.4-5.6,0.1-11.6-6.4-16.1c-1.1-0.8-2.2-1.6-3.2-2.3
		c-4.3-3.2-8.4-6.2-14.3-7.3c-3.8-0.7-9.5-1.2-15.2-1.3v0.2c5.8,0.1,11.4,0.6,15.2,1.3c5.8,1.1,9.9,4.1,14.2,7.3
		c1,0.8,2.1,1.5,3.2,2.3c6.4,4.4,8.7,10.4,6.3,15.9c-1.8,4.2-6.1,6.4-10.2,8.1c-4.3,1.9-8.7,3.1-13,4.3c-2.2,0.6-4.6,1.3-6.9,2
		c-2.9,0.9-5.9,1.5-8.9,2.1v0.2c3-0.6,6-1.2,8.9-2.1C11.4,314.8,13.7,314.2,16,313.5z"/>
	<path class="st1" d="M14.6,336.2c4.4,0.2,8.9,0.3,13.2-0.1c4-0.4,7.7-1.2,11.3-2.1c0.9-0.2,1.8-0.4,2.7-0.6c0.7-0.2,1.3-0.3,2-0.4
		c6.9-1.5,13.9-3,19.7-6.9c6.7-4.6,7.6-14.1,4.5-20.8c-2.8-6.1-7.5-10.8-12-15.5c-3.8-3.8-7.7-7.8-10.4-12.5
		c-1.3-1.7-2.3-3.4-3.4-4.9c-3.3-5.1-5.9-9.2-12.8-10.8c-13.3-3.1-24.9-5.8-27-19.1c-0.8-4.7,0.3-8.4,1.3-11.9
		c0.8-2.8,1.6-5.5,1.4-8.5l0,0l0,0c-0.4-0.3-0.7-0.7-1-1c-0.4-0.5-0.9-0.9-1.4-1.3l0,0h0c-0.9,0.1-1.7,0.2-2.4,0.3v0.2
		c0.7-0.1,1.5-0.3,2.4-0.3c0.5,0.4,0.9,0.8,1.3,1.3c0.3,0.3,0.7,0.7,1,1c0.2,3-0.6,5.6-1.4,8.4c-1,3.6-2,7.3-1.3,12
		C4.4,256,16,258.7,29.4,261.8c6.9,1.6,9.4,5.6,12.7,10.7c1,1.6,2.1,3.2,3.4,4.9c2.8,4.7,6.7,8.7,10.5,12.5c4.5,4.6,9.2,9.4,12,15.4
		c3,6.6,2.2,16-4.5,20.5c-5.8,3.9-12.8,5.4-19.6,6.9c-0.7,0.1-1.3,0.3-2,0.4c-0.9,0.2-1.8,0.4-2.7,0.6c-3.6,0.8-7.3,1.6-11.3,2
		c-4.4,0.5-8.9,0.3-13.2,0.1c-5-0.2-9.8-0.3-14.4,0.4v0.2C4.8,335.8,9.6,336,14.6,336.2z"/>
	<path class="st1" d="M147.4,293.1c0.6,0.3,1.2,0.6,1.7,0.9c2.2,1.6,4.1,3.8,5.3,5.4c3.1,4,4.9,7.8,6.1,12.9
		c1.7,7,6.1,9.8,13.1,12.3c4,1.4,8.5,2.1,13,2.1c2.2,0,4.4-0.2,6.5-0.6c7.6-1.4,12.5-6,13.4-12.7c0.2-1.4,0.5-2.9,0.7-4.3
		c1-5.7,2.1-11.6-1.2-16.8c-2.7-4.3-7.8-4.9-12.9-4.9c-1,0-2,0-2.9,0c-0.9,0-1.9,0.1-2.8,0.1c-1.8,0-3.2-0.1-4.4-0.3
		c-4.1-0.7-8.1-1.6-12-2.6c-6.5-1.6-12.6-3.1-18.7-3.1c-1.3,0-2.6,0.1-3.8,0.2c-1.5,0.2-2.9,1.5-3.8,3.6c-0.8,1.9-1,4.5,0.2,6
		C145.5,292.2,146.5,292.7,147.4,293.1z M144.8,285.6c0.8-2,2.1-3.3,3.6-3.5c1.2-0.1,2.5-0.2,3.8-0.2c6.1,0,12.2,1.5,18.6,3.1
		c3.9,1,8,2,12.1,2.6c1.2,0.2,2.6,0.3,4.4,0.3c0.9,0,1.9,0,2.8,0c1,0,1.9,0,2.9,0c5.1,0,10.1,0.6,12.8,4.8c3.3,5.2,2.2,11,1.2,16.7
		c-0.3,1.4-0.5,2.9-0.7,4.3c-0.9,6.6-5.7,11.2-13.3,12.5c-2.1,0.4-4.3,0.6-6.5,0.6c-4.4,0-8.9-0.7-12.9-2.1c-7-2.4-11.4-5.2-13-12.2
		c-1.2-5-3-8.9-6.1-12.9c-1.2-1.6-3.1-3.8-5.4-5.5c-0.5-0.4-1.1-0.7-1.7-1c-0.9-0.4-1.9-0.9-2.4-1.6
		C144,290.2,144,287.8,144.8,285.6z"/>
	<path class="st1" d="M182.5,318.8c2.3,0,4.6-0.4,5.7-0.8c0.3-0.1,0.7-0.2,1-0.4c1.8-0.9,2.9-2.3,3-4.2c0-1.4-0.6-2.9-1.7-4
		c-1.5-1.5-3.5-2.1-5.5-1.5c-2.1,0.7-6.6,3.2-7.9,6c-0.5,1-0.5,1.9-0.2,2.7C177.6,318.4,180.3,318.8,182.5,318.8z M177.2,314.1
		c1.3-2.7,5.7-5.3,7.8-5.9c0.5-0.2,1.1-0.2,1.5-0.2c1.4,0,2.7,0.6,3.8,1.6c1.1,1.1,1.6,2.5,1.6,3.9c0,1.7-1.1,3.1-2.8,4
		c-0.3,0.1-0.6,0.3-0.9,0.4c-1.1,0.4-3.4,0.7-5.7,0.7c-3,0-4.9-0.7-5.4-1.9C176.7,315.9,176.8,315,177.2,314.1z"/>
	<path class="st1" d="M241.3,390.7c0-0.4,0-0.9,0-1.4c0-0.5,0-1,0-1.5c-0.4-3.1-1.6-6.9-3-10.9c-1.4-4.1-2.8-8.3-3.4-12.4
		c-0.3-1.7-0.5-3.5-0.6-5.3c-0.6-5.8-1.1-11.8-5.2-14.4c-1.8-1.2-4.5-1.8-8.4-1.8c-2.2,0-4.5,0.2-6.9,0.3c-0.9,0.1-1.8,0.1-2.7,0.2
		c-8,0.5-24.7,2.6-30.5,7c-7.9,6-8.9,16.3-8.8,25.7c0.9,11.7,9,18.3,17.8,24.9h0.3c-8.9-6.7-17-13.2-17.9-24.9
		c-0.1-9.3,0.8-19.5,8.7-25.5c5.8-4.4,22.4-6.5,30.4-6.9c0.9,0,1.8-0.1,2.7-0.2c2.3-0.2,4.7-0.3,6.8-0.3c3.9,0,6.5,0.6,8.3,1.7
		c4,2.6,4.5,8.5,5.1,14.3c0.2,1.8,0.3,3.6,0.6,5.3c0.7,4.1,2.1,8.3,3.4,12.4c1.3,4,2.6,7.8,2.9,10.8c0.1,0.5,0,1,0,1.5
		c0,0.5,0,1,0,1.4c0.4,3.1,0,6.7-1.1,10.4h0.2C241.3,397.4,241.7,393.8,241.3,390.7z"/>
	<path class="st1" d="M27.3,392.1c-0.1-2.7,0-5.4,0.1-8c0.1-4,0.3-7.8-0.4-10.9c-1.7-7.5-11.2-12.9-19.5-15.5
		c-2.5-0.8-4.7-1-7.2-0.8v0.2c2.4-0.2,4.7,0.1,7.1,0.8c8.3,2.5,17.7,7.9,19.4,15.3c0.7,3.1,0.6,6.9,0.4,10.9
		c-0.1,2.6-0.2,5.4-0.1,8.1c0.1,3.2,0,6.2-0.3,9H27C27.3,398.3,27.5,395.3,27.3,392.1z"/>
	<path class="st1" d="M231.4,389c-0.4-1.8-1-4.1-1.7-6.4c-1-3.4-2.2-7.3-2.8-11.2c-0.2-1.1-0.3-2.2-0.5-3.2
		c-0.9-6.7-1.6-12-6.1-15.5c-3-2.4-8.7-3.8-15.2-3.8c-7.9,0-15.2,2-19.6,5.3c-7.2,5.5-7.5,15.1-6.5,22.3c1.6,7.6,7.1,11.5,14,16.5
		c3.2,2.3,6.6,4.7,10,7.8c0.1,0.1,0.2,0.2,0.3,0.2h0.3c-0.2-0.1-0.3-0.3-0.4-0.4c-3.4-3.1-6.9-5.6-10-7.8
		c-6.9-4.9-12.3-8.8-13.9-16.4c-1-7.1-0.8-16.6,6.4-22.1c4.3-3.3,11.7-5.3,19.5-5.3c6.4,0,12.1,1.4,15.1,3.8c4.4,3.4,5.1,8.7,6,15.3
		c0.2,1,0.3,2.1,0.5,3.2c0.6,3.9,1.7,7.8,2.8,11.2c0.7,2.4,1.4,4.6,1.7,6.4c0.7,3.9,0.5,8.2-0.8,12.1h0.2
		C231.9,397.1,232.2,392.9,231.4,389z"/>
	<path class="st1" d="M93.2,377.7c-0.8-2.8-1.4-8.1-1-11.7c0.1-0.7,0.3-1.5,0.5-2.4c0.8-3,1.7-6.6-2-9.3l0,0h0
		c-6.9-0.8-11.1,4.8-14.7,9.8c-1,1.3-1.9,2.5-2.8,3.7c-3.4,3.5-7.9,6-12.8,8.7c-7.5,4.2-15.3,8.5-18.9,16.9
		c-1.1,2.4-1.9,5.1-2.8,7.8h0.2c0.9-2.7,1.8-5.4,2.8-7.7c3.6-8.3,11.4-12.6,18.8-16.8c4.8-2.7,9.4-5.2,12.8-8.8
		c1-1.1,1.9-2.3,2.8-3.6c3.7-4.9,7.8-10.5,14.5-9.8c3.6,2.6,2.7,6,1.9,9.1c-0.2,0.9-0.4,1.7-0.5,2.4c-0.4,3.7,0.2,9,1,11.8
		c1.2,4.3,3,8.6,4.9,13.2c1.4,3.3,2.7,6.7,4,10.2h0.2c-1.2-3.5-2.6-6.9-4-10.2C96.2,386.3,94.5,381.9,93.2,377.7z"/>
	<path class="st1" d="M202.1,354.7c-4.3,0-8.5,1.3-11.2,3.4c-3.6,2.7-5.8,6-5.4,13.9c2.5,10.1,13.4,15.6,22.5,15.6l0,0
		c1.2,0,2.3-0.1,3.4-0.3h0l0,0c1.2-1,2.4-2.3,3.6-3.8l0,0c3.3-10.3,3.2-18.8-0.4-23.4C212.1,356.6,207.5,354.7,202.1,354.7z
		 M214.9,383.3c-1.2,1.5-2.3,2.8-3.5,3.8c-1.1,0.2-2.2,0.3-3.4,0.3l0,0c-9,0-19.9-5.4-22.3-15.4c-0.4-7.8,1.7-11.1,5.3-13.7
		c2.7-2.1,6.9-3.3,11.1-3.3c5.3,0,9.9,1.9,12.4,5.1C218,364.6,218.2,373.1,214.9,383.3z"/>
	<path class="st1" d="M155.4,383.1c-1.4-6.9-2.9-14-7.4-19.7c-2.3-2.9-5.2-4-8.8-3.5c-7.4,1.1-16.3,7.8-21.1,11.5
		c-5.3,5.6-7.3,12.3-6.2,20.6c0.4,2.9,1.3,6.1,2.1,9.2h0.2c-0.9-3.1-1.7-6.3-2.1-9.2c-1.2-8.2,0.8-14.9,6.1-20.4
		c4.7-3.6,13.6-10.3,21-11.4c0.6-0.1,1.1-0.1,1.6-0.1c2.8,0,5.1,1.2,7,3.6c4.5,5.6,6,12.7,7.4,19.6c1.3,6.2,2.6,12.6,6.1,17.8
		c0.1,0.1,0.1,0.2,0.2,0.2h0.2c-0.1-0.1-0.2-0.2-0.3-0.3C157.9,395.6,156.6,389.2,155.4,383.1z"/>
	<path class="st1" d="M203,367.7L203,367.7c-0.7-1.2-1.9-1.9-3.1-1.9c-0.4,0-0.8,0.1-1.1,0.2l0,0c-0.7,0.5-1.2,1.4-1.3,2.2
		c-0.1,0.6,0.1,1.1,0.5,1.5c0.2,0.2,0.5,0.4,0.7,0.7l0,0h0c0.4,0.1,0.8,0.2,1.1,0.2l0,0c1.2,0,2.4-0.7,3.1-1.9l0,0
		C203,368.4,203,368.1,203,367.7L203,367.7z M202.8,368.7c-0.7,1.1-1.7,1.8-2.9,1.8l0,0c-0.3,0-0.7-0.1-1.1-0.2
		c-0.2-0.3-0.5-0.5-0.7-0.7c-0.3-0.4-0.5-0.9-0.4-1.4c0.1-0.8,0.6-1.6,1.2-2.1c0.4-0.1,0.7-0.2,1.1-0.2c1.1,0,2.2,0.7,2.9,1.8
		C202.8,368.1,202.8,368.4,202.8,368.7z"/>
	<path class="st1" d="M9.6,376.2c-2.4-2.9-4.6-4.1-9.4-5v0.2c4.8,0.9,7,2.1,9.3,4.9c4.1,5.1,6.7,14.6,7.3,21.3
		c0.1,1.2,0.2,2.4,0.2,3.5h0.2c0-1.1,0-2.2-0.2-3.5C16.4,390.9,13.8,381.4,9.6,376.2z"/>
	<path class="st1" d="M132,378.7c-0.3,0-0.6,0-0.8,0c-2.6,0.2-4.9,1.4-6.6,3.5c-2.5,3-3.6,7.5-3.1,12.7c0.2,2,0.5,4.1,1,6.1h0.2
		c-0.4-2-0.8-4.1-1-6.1c-0.5-5.2,0.6-9.7,3.1-12.6c1.7-2,4-3.2,6.5-3.4c0.3,0,0.6,0,0.8,0c7.7,0,10.6,9.2,13.1,17.3
		c0.5,1.7,1,3.4,1.6,4.9h0.2c-0.6-1.5-1.1-3.2-1.6-4.9C142.7,388,139.8,378.7,132,378.7z"/>
	<path class="st1" d="M79.5,386.4c-1.3-0.2-2.6-0.3-3.9-0.3c-5.2,0-10.4,1.4-14.8,4.1c-4.4,2.6-7.9,6.4-10.3,10.8h0.2
		c4.9-9.1,14.3-14.8,24.9-14.8c1.3,0,2.6,0.1,3.9,0.3c5.6,0.8,11.2,5.4,15.2,12.8c0.3,0.6,0.6,1.2,0.9,1.7h0.2
		c-0.3-0.6-0.6-1.2-0.9-1.8C90.8,391.9,85.2,387.2,79.5,386.4z"/>
	<path class="st1" d="M0.5,394.5c-0.1,0-0.2,0-0.3,0v0.2c0.1,0,0.2,0,0.3,0c1.5,0,2.7,1,3.4,2.7c0.4,1.1,0.7,2.4,0.7,3.7h0.2
		c0-1.3-0.3-2.7-0.7-3.7C3.3,395.5,2,394.5,0.5,394.5z"/>
	<path class="st1" d="M64.7,401.1h0.3c3-2.1,6.7-3.2,10.4-3.2c3.7,0,7.1,1.2,9.8,3.2h0.3c-2.8-2.2-6.3-3.4-10.1-3.4
		C71.6,397.7,67.8,398.9,64.7,401.1z"/>
	<path class="st1" d="M340.3,382.6c-2.2-4.1-4.6-8.4-6.4-12.8c-1-2.4-1.9-5.1-2.9-7.9c-4.2-12-8.9-25.6-23.6-25.6
		c-0.2,0-0.4,0-0.6,0c-5.3,0.1-10.3,2-13.6,3.5c-0.8,0.4-1.6,0.7-2.4,1.1c-2.5,1.1-5,2.3-7.3,3.6c-6.7,3.7-14.3,5.5-21.7,7.2l-0.1,0
		c-0.6,0.2-1.3,0.3-2,0.4c-4.9,1.1-11.1,2.4-13.1,8.1c-1.5,4.4-0.1,10.1,1.2,15.6c0.5,2,0.9,3.9,1.3,5.7c1.1,6.2,1.2,12.1,0.2,17.4
		c-0.1,0.7-0.3,1.4-0.4,2.1h0.2c0.2-0.7,0.3-1.4,0.4-2.1c0.9-5.3,0.9-11.2-0.2-17.5c-0.3-1.8-0.8-3.7-1.3-5.7
		c-1.3-5.5-2.7-11.1-1.2-15.5c1.9-5.7,8-6.9,12.9-8c0.7-0.2,1.4-0.3,2-0.5l0.1,0c7.4-1.7,15.1-3.5,21.8-7.2c2.3-1.3,4.8-2.4,7.3-3.6
		c0.8-0.4,1.6-0.8,2.4-1.1c3.3-1.5,8.3-3.4,13.5-3.5c0.2,0,0.4,0,0.6,0c14.5,0,19.2,13.5,23.4,25.5c1,2.8,1.9,5.5,2.9,7.9
		c1.9,4.4,4.2,8.7,6.5,12.9c1.9,3.5,3.7,6.8,5.3,10.3c1.6,3.4,3.2,6.1,4.9,8.1h0.3c-1.8-2-3.4-4.7-5-8.2
		C344,389.5,342.2,386.2,340.3,382.6z"/>
	<path class="st1" d="M405.1,346.7c-12.1,4.6-20.2,13.2-23.3,24.9c-0.9,3.3-1.5,7.5-2.1,11.5c-0.8,5-1.5,10.2-2.8,13.8
		c-0.6,1.5-1.3,2.9-2.3,4.1h0.2c1-1.2,1.7-2.5,2.3-4.1c1.3-3.6,2.1-8.8,2.8-13.9c0.6-4.1,1.2-8.2,2.1-11.5
		c3.2-11.7,11.2-20.2,23.2-24.8c1-0.4,2.7-0.8,4.2-1.1c0.3-0.1,0.7-0.1,1-0.2v-0.2c-0.4,0.1-0.7,0.1-1.1,0.2
		C407.8,345.8,406.1,346.3,405.1,346.7z"/>
	<path class="st1" d="M393.4,259.9c-3.9,0.9-7.6,2.7-11.2,4.6c-3.6,1.8-7.3,3.7-11.2,4.5c-9.9,2.1-13.6-6.6-16.9-14.3
		c-0.5-1.1-0.9-2.1-1.4-3.2c-1.8-4-3.9-7.7-6.3-10.9c-4.6-6.5-10-11.7-15.9-15.5c-5.5-3.5-10.1-5.3-14.5-5.9
		c-7.2-1-12.2,1.3-18.1,3.8c-1.3,0.6-2.6,1.1-3.9,1.7c-3.9,1.6-8.3,3.3-11.3,7.2c-2.2,2.9-4,6.4-5.6,9.8l-0.4,0.8
		c-3,6.3-5.2,12.5-7.6,19c-0.5,1.5-1.1,3-1.6,4.5c-1.4,4.1-2.9,8.2-4.6,12.2c-1.3,3-3.3,5.7-5.3,8.2c-1.1,1.4-2.2,2.9-3.2,4.4
		c-2.5,3.8-6.5,7.2-10.3,10.4c-1.4,1.2-2.7,2.3-3.9,3.4c-0.8,0.7-1.6,1.4-2.5,2.1c-4,3.4-8.4,7.3-9.6,12.2c-0.2,0.7-0.3,1.3-0.4,1.9
		c-1.3,5.5-2.4,10.2-7.9,13.7c-5.2,3.3-11.5,4.3-17.1,5.2c-2.6,0.4-5.3,0.8-7.9,1.1c-4.8,0.6-9.3,1.2-13.3,2.3
		c-9.3,2.5-15,9-16.9,19.3c-1.8,10.1,0,22.3,2.1,27.3c1.9,4.5,5,8.1,8.8,11.2h0.3c-3.8-3.2-7-6.8-8.9-11.3c-2-5-3.9-17.2-2.1-27.2
		c1.9-10.2,7.5-16.6,16.8-19.1c4.1-1.1,8.6-1.7,13.3-2.3c2.6-0.3,5.2-0.7,7.9-1.1c5.6-0.9,11.9-2,17.1-5.3c5.6-3.5,6.7-8.3,7.9-13.8
		c0.2-0.6,0.3-1.3,0.5-1.9c1.2-4.8,5.6-8.7,9.6-12.1c0.9-0.8,1.7-1.5,2.5-2.2c1.2-1.1,2.5-2.2,3.9-3.4c3.8-3.3,7.8-6.6,10.3-10.5
		c1-1.5,2.1-3,3.2-4.4c1.9-2.6,4-5.2,5.3-8.2c1.8-4,3.2-8.2,4.6-12.2c0.5-1.5,1-3,1.6-4.5c2.3-6.5,4.6-12.7,7.6-19l0.4-0.8
		c1.6-3.4,3.3-6.9,5.6-9.8c3-3.8,7.3-5.6,11.2-7.1c1.4-0.6,2.7-1.1,3.9-1.7c5.8-2.6,10.9-4.8,18-3.8c4.4,0.6,9,2.5,14.4,5.9
		c5.9,3.7,11.2,8.9,15.9,15.4c2.3,3.2,4.4,6.9,6.2,10.9c0.5,1,0.9,2,1.4,3.2c1.6,3.7,3.3,7.9,5.9,10.8c3,3.3,6.6,4.5,11.1,3.5
		c3.8-0.8,7.6-2.7,11.2-4.6c3.6-1.8,7.3-3.7,11.1-4.5c6.3-1.4,12.1,0.2,17,1.9v-0.2C405.5,260.1,399.7,258.5,393.4,259.9z"/>
	<path class="st1" d="M383.4,331.8c-4.5,4.4-8.8,8.5-14.4,10.2c-7.8,2.3-13.6-3.4-19.3-9c-0.3-0.3-0.7-0.7-1-1
		c-2.9-2.8-6.3-4.9-9.7-6.9c-2.4-1.5-4.9-3-7.1-4.7c-1.7-1.3-3.5-2.5-5.2-3.7c-1.2-0.8-2.4-1.6-3.5-2.5c-1.9-1.4-3.2-3.6-4.5-5.7
		c-0.7-1.1-1.4-2.3-2.2-3.3c-2.2-2.8-5.3-4.9-8.3-7c-5.5-3.8-10.7-7.4-11-14.8c-0.2-4.4,0.8-9.9,2.7-15.1c1.9-4.9,5.4-10.2,9.7-14.5
		c2.9-3,5.9-4.3,8.8-4.1c5.2,0.4,9.6,5.9,12.9,10.6c1.9,2.8,2.7,5.5,3.5,8.3c0.5,1.6,1,3.3,1.7,5.1c0.7,1.8,1.6,3.6,2.5,5.3
		c1.4,2.7,2.7,5.5,3.6,8.4c1.4,5,1.7,12.2-0.5,16.3c-2.2,4-1.2,10.8,1.2,14.4c2.1,3.2,7.3,5.3,11.5,7c1,0.4,1.8,0.7,2.6,1.1
		c0.4,0.2,0.8,0.3,1.1,0.5c1.4,0.6,2.5,1.1,3.8,1.4c6.5,1.3,11-1.8,13.7-9.6c2.9-8.2,0.9-15.6-5.6-20.9c-2-1.6-4.2-2.8-6.4-4
		c-1-0.5-2-1.1-3-1.7c-0.3-0.2-0.5-0.3-0.8-0.5c-2.8-1.7-6.4-3.8-8.3-6.2c-2.9-3.7-5.3-7.6-7.1-11.8c-0.9-2.1-1.6-4.3-2.4-6.6
		c-0.6-1.7-1.1-3.4-1.8-5.1c-1.5-4-3.8-7.5-5.4-9.7c-3.1-4.2-8.6-9.8-14.1-11.8c-8.7-3.2-20.4,5.4-26.2,11.9
		c-3.2,3.7-5.3,8.2-7,12.2c-0.4,1.1-0.9,2.2-1.3,3.3c-2.4,6-4.6,11.6-8.4,16.8c-1.2,1.7-2.2,3.5-3.2,5.2c-0.7,1.2-1.4,2.5-2.2,3.8
		c-2,3.2-5.1,5-8.1,6.6c-1.4,0.7-2.8,1.4-4.2,2.1c-4,1.9-8.2,3.8-11.6,7c-2.2,2-3,4.2-2.6,6.4c0.8,3.7,4.8,6.5,8.4,7.8
		c7.5,2.8,16.1,1.8,23.7,0.9l1-0.1c0.6-0.1,1.2-0.1,1.8-0.2c3.4-0.3,6.5-0.7,9.7-2.5c0.5-0.3,1-0.6,1.5-0.9c4.8-2.7,9-5.1,14.5-6.4
		c3.5-0.8,8.6-0.7,11.8,1.3c1.6,1,2.2,2.4,2.9,4c0.4,1,0.9,1.9,1.5,2.8c2.6,3.5,6.2,6.2,9.7,8.8c3.4,2.6,6.9,5.2,9.5,8.6
		c1.6,2,2.9,4.5,4.2,6.9c1.3,2.4,2.6,4.9,4.1,6.8c3.1,3.9,7.4,5.2,12.1,3.8c4-1.3,8.5-4.7,12.9-8c0.7-0.5,1.3-1,1.9-1.5
		c2.3-1.7,4.5-3.5,6.6-5.2c5.9-4.8,11.4-9.3,17.6-11.8c2.5-1,5.3-1.7,8.3-2.3v-0.2c-3.1,0.6-5.9,1.3-8.4,2.3
		c-6.3,2.5-11.8,7.1-17.7,11.8c-2.1,1.7-4.3,3.5-6.6,5.2c-0.6,0.5-1.3,1-1.9,1.5c-4.3,3.3-8.8,6.7-12.8,8c-4.6,1.4-8.8,0.1-11.9-3.7
		c-1.5-1.9-2.8-4.2-4.1-6.7c-1.3-2.4-2.6-4.9-4.2-6.9c-2.7-3.4-6.2-6.1-9.6-8.7c-3.4-2.6-7-5.3-9.6-8.8c-0.6-0.9-1.1-1.8-1.5-2.8
		c-0.7-1.6-1.4-3.1-3-4.1c-3.2-2-8.4-2.1-11.9-1.3c-5.6,1.3-9.7,3.6-14.6,6.4c-0.5,0.3-1,0.6-1.5,0.9c-3.1,1.8-6.3,2.1-9.7,2.4
		c-0.6,0.1-1.2,0.1-1.8,0.2l-1,0.1c-7.6,0.9-16.2,1.9-23.6-0.9c-4.5-1.6-7.7-4.7-8.3-7.7c-0.4-2.2,0.4-4.3,2.5-6.3
		c3.4-3.2,7.5-5.1,11.5-7c1.4-0.6,2.9-1.3,4.3-2c3-1.6,6.1-3.5,8.2-6.7c0.8-1.2,1.5-2.5,2.2-3.8c1-1.7,2-3.5,3.2-5.2
		c3.8-5.2,6-10.9,8.4-16.9c0.4-1.1,0.9-2.2,1.3-3.3c1.6-4,3.7-8.5,6.9-12.2c5.7-6.5,17.3-15,26-11.8c5.5,2,11,7.6,14,11.8
		c1.6,2.2,3.9,5.7,5.4,9.7c0.7,1.7,1.2,3.4,1.8,5.1c0.8,2.3,1.5,4.5,2.4,6.6c1.8,4.2,4.2,8.2,7.1,11.9c2,2.5,5.5,4.6,8.4,6.3
		c0.3,0.1,0.5,0.3,0.8,0.5c1,0.6,2,1.1,3,1.7c2.2,1.2,4.4,2.4,6.3,4c6.4,5.3,8.3,12.6,5.5,20.7c-2.7,7.7-7.1,10.7-13.5,9.4
		c-1.3-0.3-2.4-0.8-3.8-1.4c-0.4-0.2-0.7-0.3-1.1-0.5c-0.8-0.3-1.7-0.7-2.6-1.1c-4.2-1.7-9.4-3.7-11.4-6.9
		c-2.3-3.5-3.3-10.2-1.2-14.2c2.3-4.2,2-11.5,0.5-16.5c-0.9-3-2.3-5.8-3.6-8.5c-0.9-1.7-1.7-3.5-2.5-5.3c-0.7-1.8-1.2-3.5-1.7-5.1
		c-0.8-2.9-1.6-5.5-3.5-8.4c-3.3-4.7-7.8-10.3-13-10.7c-3-0.3-6,1.1-8.9,4.1c-4.3,4.4-7.8,9.7-9.7,14.6c-2,5.2-3,10.7-2.7,15.2
		c0.4,7.5,5.8,11.3,11.1,14.9c3,2.1,6.1,4.2,8.2,7c0.8,1,1.5,2.1,2.2,3.3c1.3,2.1,2.6,4.3,4.5,5.7c1.2,0.8,2.4,1.7,3.5,2.5
		c1.7,1.2,3.5,2.4,5.2,3.7c2.2,1.8,4.7,3.3,7.1,4.7c3.3,2,6.8,4.2,9.6,6.9c0.4,0.3,0.7,0.7,1.1,1c5.7,5.6,11.6,11.3,19.5,9
		c5.6-1.6,9.9-5.8,14.4-10.2c4.3-4.2,8.8-8.5,14.8-11c3.8-1.6,8-2.5,12.1-3.4v-0.2c-4.1,0.8-8.3,1.8-12.2,3.4
		C392.2,323.2,387.7,327.6,383.4,331.8z"/>
	<path class="st1" d="M390.4,275.1c-3.1,0.7-6.2,2.2-9.6,3.9c-5.5,2.7-11.3,5.6-16.5,3.9c-9.5-3-13.1-13-16.3-21.9
		c-0.7-1.8-1.3-3.5-1.9-5.2c-1.5-3.7-3.3-7.1-5.5-10.1c-3.4-4.7-7.5-7.6-11.9-10.6c-0.7-0.5-1.3-0.9-2-1.4c-3.9-2.7-8.6-5.4-14-4.7
		c-1.7,0.2-3.5,1.2-5.2,2c-1.1,0.6-2.1,1.1-3.1,1.4c-0.7,0.3-1.5,0.6-2.3,0.8c-5.8,2.1-11.8,4.3-16,9c-1.2,1.4-2.2,3.1-3.2,4.8
		c-0.5,0.9-1,1.7-1.5,2.5c-2.1,3.1-3.8,6.6-5.3,10.3c-1.6,4-2.5,8.3-3.4,12.5c-1,4.5-2,9.2-3.8,13.4c-1.9,4.3-6.8,7.5-11.1,10.2
		c-1.2,0.8-2.3,1.5-3.3,2.2c-3,2.1-5.5,4.5-8,7c-1.6,1.6-3.3,3.2-5.1,4.7c-4.1,3.5-5.9,9.4-4.8,15.5c2,10.6,6.1,12.4,15.1,13.9
		c6.8,1.1,14.8,0.9,24.3-0.8c5.5-1,10.7-4.5,15.7-7.9c1.8-1.3,3.6-2.4,5.2-3.4c7.1-4.3,15.4-3.4,22.4,2.4c0.9,0.7,1.8,1.4,2.7,2.1
		c5.3,4.2,10.3,8.2,13,14.6c1.2,2.8,1.9,5.7,2.7,8.6c0.7,2.8,1.5,5.7,2.6,8.4c1.7,4.1,5,8.7,8.7,11.9c3.2,2.8,8,5.8,12.8,4.4
		c4.5-1.3,7.2-6.5,10-11.9c1.8-3.5,3.7-7,6.1-10c3.2-3.9,7.5-7.3,10.4-9.6l0.3-0.2c6.3-4.9,12.3-9.5,20.1-11.1
		c0.5-0.1,1-0.2,1.5-0.3v-0.2c-0.5,0.1-1,0.2-1.6,0.3c-7.9,1.6-13.9,6.2-20.2,11.1l-0.3,0.2c-2.9,2.3-7.2,5.8-10.4,9.7
		c-2.5,3-4.3,6.6-6.1,10c-2.8,5.4-5.5,10.5-9.9,11.8c-4.8,1.4-9.5-1.6-12.7-4.3c-3.6-3.2-7-7.8-8.7-11.9c-1.1-2.7-1.9-5.6-2.6-8.4
		c-0.8-2.9-1.5-5.8-2.7-8.6c-2.7-6.4-7.9-10.6-13-14.7c-0.9-0.7-1.8-1.4-2.7-2.1c-7-5.8-15.5-6.7-22.6-2.4c-1.7,1-3.4,2.2-5.2,3.4
		c-5,3.4-10.2,6.9-15.7,7.9c-9.5,1.7-17.4,1.9-24.2,0.8c-8.9-1.5-13-3.2-14.9-13.7c-1.1-6,0.7-11.9,4.7-15.3
		c1.8-1.5,3.5-3.2,5.1-4.7c2.5-2.4,5-4.9,7.9-7c1-0.7,2.1-1.4,3.3-2.2c4.4-2.8,9.3-5.9,11.2-10.3c1.8-4.3,2.8-9,3.8-13.5
		c0.9-4.2,1.8-8.5,3.4-12.5c1.4-3.7,3.2-7.2,5.3-10.3c0.5-0.8,1-1.6,1.5-2.5c1-1.7,2-3.4,3.2-4.8c4.1-4.7,10.1-6.8,15.9-8.9
		c0.8-0.3,1.5-0.6,2.3-0.8c1-0.4,2.1-0.9,3.1-1.5c1.7-0.9,3.5-1.8,5.1-2c5.4-0.8,10,1.9,13.9,4.6c0.7,0.5,1.3,0.9,2,1.4
		c4.4,3.1,8.5,5.9,11.8,10.6c2.2,3,4,6.4,5.5,10c0.7,1.6,1.3,3.3,1.9,5.2c3.2,8.9,6.9,19,16.5,22c5.3,1.7,11.1-1.2,16.7-3.9
		c3.3-1.6,6.5-3.2,9.5-3.8c4.3-0.9,12.3-1.3,20-1.1V274C402.7,273.8,394.7,274.2,390.4,275.1z"/>
	<path class="st1" d="M386.5,123.1c-5.2,3.6-8.3,8.7-9.2,15.1c-0.4,2.5-0.1,5.3,0.2,7.9c0.3,2.8,0.6,5.7,0.2,8.4
		c-0.5,3.1-2.2,5.9-4.3,7.1c-1.5,0.9-3.1,1-4.9,0.3c-5.6-6.5-10.2-10.8-17.1-13.6c-2-0.8-4-1.5-6.5-2.3c-1.2-0.4-2.4-0.8-3.6-1.2
		c-7.5-2.5-15.3-5-27.9-4c-6.1,0.5-10.6,1.6-14.6,5.6c-2.6,2.7-4.6,5.9-6.5,9c-1.4,2.2-2.8,4.5-4.5,6.6c-0.8,1.1-1.8,2.1-2.8,3.1
		c-1.4,1.5-2.9,3-4,4.7c-2.2,3.5-2.3,9.4-1.5,13.4c1.1,5.2,4.4,9.6,7.7,13.8c0.8,1,1.6,2.1,2.4,3.3c2.2,3.2,4.5,6.5,7.7,8.2
		c3.5,1.8,7.6,1.9,11.5,1.6c1.3-0.1,2.7-0.5,4.1-0.8c1.9-0.5,4-1.1,5.9-0.7c6.9,1.2,14.8,6.1,19.8,10.2c2.7,2.2,5.2,4.7,7.4,7.4
		c1.7,2.1,3.3,4.3,5,6.6c2.9,3.9,6,8,9.4,12c3.2,3.7,7.4,7.3,13.9,5c3.7-1.3,6.9-3.5,9.9-5.7c4.4-3.2,8.4-7.8,12.2-12.2
		c3.5-4,6.9-7.8,10.1-10.2c0.9-0.6,2-1.2,3.7-1.6V220c-1.7,0.4-2.9,1-3.8,1.7c-3.3,2.3-6.6,6.2-10.2,10.2
		c-3.8,4.4-7.8,8.9-12.2,12.1c-3.1,2.3-6.1,4.4-9.8,5.7c-6.4,2.2-10.5-1.3-13.7-4.9c-3.4-4-6.5-8.1-9.4-12c-1.7-2.3-3.3-4.5-5-6.6
		c-2.1-2.7-4.6-5.3-7.4-7.5c-5-4.1-12.9-9-19.9-10.2c-2-0.4-4,0.2-6,0.7c-1.3,0.3-2.7,0.7-4,0.8c-3.9,0.3-7.9,0.3-11.4-1.6
		c-3.2-1.7-5.4-4.9-7.7-8.1c-0.8-1.2-1.6-2.3-2.4-3.4c-3.3-4.1-6.6-8.5-7.7-13.7c-0.8-3.9-0.7-9.8,1.5-13.3c1.1-1.7,2.5-3.2,3.9-4.7
		c1-1,1.9-2,2.8-3.1c1.7-2.1,3.1-4.4,4.4-6.6c1.9-3.1,3.9-6.3,6.5-8.9c3.9-4,8.5-5.1,14.5-5.6c12.6-1,20.3,1.5,27.8,4
		c1.2,0.4,2.4,0.8,3.6,1.2c2.5,0.8,4.5,1.5,6.4,2.3c6.9,2.8,11.5,7.1,17,13.6l0,0l0,0c1.8,0.7,3.5,0.6,5.1-0.3
		c2.2-1.3,3.9-4.1,4.4-7.3c0.4-2.7,0.1-5.6-0.2-8.4c-0.3-2.6-0.6-5.4-0.2-7.9c0.9-6.4,4-11.4,9.2-15c5.9-4.1,14.1-6,23.8-5.6v-0.2
		C400.6,117,392.4,119,386.5,123.1z"/>
	<path class="st1" d="M112,18.5c0.3,2.7,0.7,7.6-0.2,11c-1.5,5.5-6,10.2-10.3,14.8c-6.1,6.4-12.3,13.1-10.4,22c1,4.8,3.6,7.8,8,9.1
		c3.8,1.2,8.4,1,13.6,0.7c9.5-0.5,15.9,1,19.7,2.5c3.8,1.4,7.2,3.8,10.6,6.2c4.5,3.1,8.8,6.1,13.6,6.7c1.9,0.3,3.5,0.2,5.3-0.2
		c4.5-1,7.9-3.3,11.5-5.7c6.1-4.1,12.5-8.3,24.8-5.9c2.7,0.5,5.4,1.3,8.2,2.2c9.1,2.7,18.5,5.4,28.9-0.1c9.5-4.8,15.5-13.5,21.2-22
		c2.7-3.9,5.5-8,8.5-11.6c3.9-4.6,9.3-10.8,15.9-8.7c2.6,0.9,5.4,1.3,8,1.7c4.2,0.7,8.5,1.4,12.4,3.8c2.8,1.7,4.9,4.2,7.1,6.7
		c1,1.1,2,2.3,3.1,3.4c2.4,2.4,4.3,5.2,6.1,7.9c1.6,2.3,3.2,4.7,5.1,6.8c2.6,2.3,4.8,4.2,7.4,6.6c3.2,2.9,6,6.3,8.8,9.6
		c5.3,6.4,10.4,12.3,17,14.3c4.6,1.4,9.5,1.2,15.6-0.6c3.3-1,7.6-2.8,10.6-4.2c6.2-2.8,13.1-6.6,18.6-10.2c4.3-2.8,7.5-6.8,9.5-11.5
		v-0.5c-1.9,4.9-5.2,9-9.6,11.8c-5.5,3.6-12.4,7.4-18.6,10.2c-3,1.4-7.3,3.2-10.6,4.2c-6.1,1.7-10.9,1.9-15.5,0.6
		c-6.5-1.9-11.5-7.9-16.9-14.2c-2.8-3.3-5.7-6.7-8.9-9.6c-2.6-2.4-4.8-4.4-7.4-6.6c-1.9-2.1-3.5-4.5-5.1-6.8
		c-1.8-2.7-3.8-5.5-6.1-7.9c-1.1-1.1-2.1-2.2-3.1-3.4c-2.1-2.4-4.3-4.9-7.1-6.7c-3.9-2.5-8.3-3.2-12.5-3.8c-2.6-0.4-5.4-0.9-8-1.7
		c-6.7-2.2-12.1,4.1-16.1,8.7c-3.1,3.6-5.9,7.7-8.6,11.6c-5.8,8.5-11.7,17.2-21.1,21.9c-10.4,5.5-19.8,2.8-28.8,0.1
		c-2.8-0.8-5.5-1.6-8.2-2.2c-12.4-2.5-18.8,1.8-24.9,5.9c-3.6,2.4-7,4.7-11.5,5.7c-1.8,0.4-3.4,0.5-5.3,0.2
		c-4.8-0.6-9.1-3.6-13.6-6.7c-3.4-2.3-6.9-4.7-10.7-6.2c-3.7-1.4-10.2-3-19.7-2.5c-8.9,0.5-19,1.1-21.4-9.7
		c-1.9-8.8,4.3-15.5,10.4-21.9c4.3-4.6,8.8-9.3,10.3-14.9c0.9-3.2,0.6-7.7,0.2-11c-0.7-5.3-2.2-10.7-3.9-16.4
		c-0.2-0.6-0.3-1.2-0.5-1.8h-0.2c0.2,0.6,0.4,1.3,0.6,1.9C109.8,7.8,111.4,13.2,112,18.5z"/>
	<path class="st1" d="M389.2,380c-0.7,3.8-1,7.7-1.4,11.5c-0.3,3.3-0.6,6.5-1.1,9.5h0.2c0.5-3,0.8-6.2,1.1-9.5
		c0.3-3.8,0.7-7.7,1.4-11.5c2.5-13.2,9.1-21.1,19.1-22.8c0.7-0.1,1.3-0.2,1.9-0.2v-0.2c-0.6,0-1.3,0.1-1.9,0.2
		C398.3,358.8,391.7,366.7,389.2,380z"/>
	<path class="st1" d="M333.7,390.5c-1.1-3.9-2.9-7.9-4.6-11.8l-0.3-0.7c-1.1-2.6-2-5.3-3-8.2c-2-6-4-12.1-8.1-16.5
		c-3.6-3.9-9.5-6.2-16.1-6.2c-3.7,0-7.3,0.7-10.3,2.1c-3.6,1.6-6.5,3.5-8.9,5.9c-2,1.9-4.9,3-7.8,4c-1.9,0.6-3.8,1.3-5.5,2.3
		c-5.1,2.9-8.4,7-9.4,11.9c-0.9,4.5-0.8,10.3-0.7,15.9c0,3.4,0.1,7,0,10.2c0,0.6-0.1,1.2-0.1,1.8h0.2c0-0.6,0.1-1.2,0.1-1.8
		c0.2-3.3,0.1-6.8,0-10.2c-0.1-5.6-0.2-11.4,0.7-15.9c1-4.8,4.2-8.8,9.3-11.7c1.7-0.9,3.6-1.6,5.5-2.3c2.8-1,5.8-2,7.8-4
		c2.4-2.3,5.3-4.2,8.9-5.8c3-1.4,6.6-2.1,10.3-2.1c6.6,0,12.4,2.2,16,6.1c4,4.4,6.1,10.5,8,16.5c1,2.9,1.9,5.7,3,8.2l0.3,0.7
		c1.7,3.9,3.5,7.9,4.6,11.8c0.6,2.2,1.2,4.6,1.7,7c0.3,1.2,0.5,2.4,0.8,3.5h0.2c-0.3-1.1-0.5-2.3-0.8-3.5
		C334.8,395.2,334.3,392.7,333.7,390.5z"/>
	<path class="st1" d="M324.9,394c-0.5-3.1-1-6.6-2.2-9.6c-0.5-1.3-1.3-2.3-2-3.3c-0.6-0.8-1.2-1.5-1.6-2.4c-0.7-1.3-1.2-2.7-1.8-4.2
		c-1.6-4.2-3.3-8.6-8-9.8c-1.1-0.3-2.6-0.4-4.4-0.4c-2,0-4.1,0.2-5.9,0.3c-0.7,0-1.4,0.1-2.1,0.2c-6,0.4-12.5,2.7-17.3,6.2
		c-5.8,4.2-7.4,11.3-8.2,16.3c-0.6,3.6-1.1,8.9,0.7,13.4c0.1,0.2,0.2,0.4,0.2,0.6h0.2c-0.1-0.2-0.2-0.4-0.3-0.6
		c-1.7-4.4-1.2-9.7-0.7-13.3c0.8-4.9,2.4-12,8.1-16.2c4.8-3.5,11.2-5.8,17.2-6.2c0.6,0,1.3-0.1,2.1-0.1c1.9-0.2,4-0.3,5.9-0.3
		c1.8,0,3.3,0.2,4.4,0.5c4.6,1.2,6.2,5.5,7.9,9.7c0.6,1.5,1.1,2.9,1.8,4.2c0.5,0.9,1.1,1.7,1.6,2.4c0.7,1,1.5,2,2,3.3
		c1.2,3,1.8,6.5,2.2,9.6c0.3,2.2,0.5,4.6,0.4,7.1h0.2C325.4,398.6,325.3,396.2,324.9,394z"/>
	<path class="st1" d="M410.2,371.2L410.2,371.2c-9,0.8-14,10.6-15.4,29.9h0.2c1.3-19.2,6.3-28.9,15.2-29.7c0.1,0,0.1,0,0.2,0v-0.2
		C410.3,371.2,410.3,371.2,410.2,371.2L410.2,371.2z"/>
	<path class="st1" d="M407.9,395.4c-1,1.6-1.9,3.5-2.1,5.7h0.2c0.2-2.1,1.2-4,2.1-5.5c0.8-0.5,1.6-0.8,2.3-0.8v-0.2
		C409.6,394.6,408.8,394.9,407.9,395.4L407.9,395.4z"/>
	<path class="st1" d="M105.2,375.4c1.5-4.8,4-7.7,7.9-12.1c0.6-0.7,1.3-1.4,2-2.1c2.8-2.9,6-6.2,6.7-9.7c1.4-6.9-2.8-10.9-7.2-13.9
		c-2.2-1.5-4.6-2.7-6.9-3.8c-3-1.5-6.2-3-8.8-5.2c-2.8-2.4-5.1-5.8-7.1-10.1c-0.9-1.9-1.3-4-1.7-6c-0.4-2-0.8-4-1.6-5.9
		c-3.8-8.5-8.8-18.2-16.9-24.9c-3.5-2.9-8-7.6-9.2-13.1c-0.8-3.6,0.3-6.8,1.2-9.3l0.1-0.5c1.9-5.7,7.7-19.4,19.8-22.9
		c2.2-0.6,4.8-1.1,7.6-1.6c3.5-0.6,7.2-1.2,9.8-2.2c4.2-1.5,7.1-3.7,10.3-6.1l0.5-0.3c3-2.3,6.7-5.2,11.6-4.8
		c4.2,0.4,9.1,2.5,13.2,6.1c4.2,3.6,7,7.9,7.8,11.8c0.5,2.6,0.7,4.6,0.9,6.6c0.2,1.7,0.3,3.3,0.7,5.1c1.6,9,5.9,16.1,12.8,21.2
		c5.6,4.2,13.1,7.1,22.3,8.6c11.9,2.1,22-1.8,25.8-3.6c6-2.8,12.5-9.6,18.1-15.7c5.5-6.1,8.5-9.7,9.1-19.4c0.2-3.1,0-6.1-0.3-9
		c-0.1-1.1-0.2-2.3-0.3-3.5c0-0.9-0.1-1.7-0.2-2.6c-0.3-2.9-0.5-6,0-9.1c1.1-6.5,4.8-9.3,11.4-8.7c8.6,0.8,16.1,6.5,19.1,14.5
		c2.4,6.4,0.5,13-1.1,18.4l-0.3,0.9c-2.5,8.9-6,15.8-10.6,21.2c-2.6,3-5.5,5.9-8.2,8.6c-1,1-2.1,2.1-3.1,3.1
		c-1.4,1.5-3.1,2.8-4.6,4.1c-1.9,1.6-4,3.3-5.7,5.3c-2.4,2.7-4.2,5.9-5.7,8.5c-4.8,8.8-8.1,16.5-10.2,23.6
		c-1.9,6.4-7,11.5-13.8,13.6c-8.7,2.7-21.2,2.4-37.1-0.9c-7.8-1.6-12.4-6.1-13.8-13.3c-1.5-8.2-7.1-12.3-12.9-16.6
		c-1.5-1.1-3.1-2.3-4.6-3.5c-6.2-5.1-3.1-9.9,0.2-15c1.5-2.3,3-4.6,3.6-7c1-3.8-0.3-7.7-1.6-11.6c-0.7-2-1.3-3.9-1.6-5.7
		c-1.5-8.9-3-15.9-7.5-18.7c-2.4-1.5-5.5-1.7-9.5-0.6c-0.6,0.2-1.4,0.4-2.1,0.6c-1.5,0.5-3.3,1-4.7,1.3c-2.5,0.6-5.1,0.9-7.8,1.2
		c-2.9,0.4-5.9,0.7-9.2,1.4c-5,1-9.4,3.5-12.8,7c-3.3,3.5-5.3,7.8-6,12.7c-0.3,2-0.4,3.8,0.2,5.7c1.6,5.6,6.7,9.6,11.2,13
		c1,0.8,2,1.6,3,2.3l0.2,0.1c4.3,3.6,9.7,8,9.5,14.2c-0.2,6.3,0.6,10.9,2.7,15.3c3.3,7,7.9,11.2,16.1,14.6c0.6,0.2,1.2,0.5,1.8,0.7
		c2.8,1.2,5.6,2.3,8.3,3.8c2.2,1.2,3.6,2.8,5.2,4.4c0.9,0.9,1.7,1.8,2.7,2.7c1.2,1.1,2.4,2.4,3.6,3.9c3.1,3.8,6.5,8.1,11.9,7
		c2.7-0.5,5.4-2.4,8.3-4.4c2.5-1.7,5.1-3.6,8-4.7c4.9-1.9,11.9-2.4,19.2-2.9c4.5-0.3,9.1-0.6,13.3-1.3c9.6-1.5,16.1-4.9,19.9-10.3
		c1.1-1.6,1.9-3.4,2.6-5.1c0.5-1.4,1.1-2.8,1.8-4c0.5-1,1.4-1.7,2.2-2.5c0.5-0.4,0.9-0.8,1.4-1.3c0.8-0.9,1.5-1.7,2.2-2.6
		c0.8-1,1.6-2,2.5-2.9c1.4-1.5,2.9-2.9,4.4-4.2c1.4-1.3,2.8-2.5,4.1-3.9c1.1-1.1,1.9-2.4,2.8-3.6c1-1.4,1.9-2.7,3.2-4
		c2.2-2.2,4.5-4.5,6.3-7.2c1.6-2.3,2.3-4.5,3-6.8c0.2-0.7,0.5-1.5,0.7-2.2c0.6-1.7,1.6-3.3,2.7-4.9c0.6-0.9,1.2-1.9,1.7-2.8
		c1.9-3.6,3.6-7.1,5-10.6c0.4-1,0.7-2,1.1-2.9c0.1-0.4,0.3-0.8,0.4-1.2c0.7-1.8,1.4-3.7,2.1-5.5c2-5.3,4.1-10.7,5.1-15.7
		c0.7-3.2,1.3-6.6,0.6-9.9c-2.5-11.5-13.6-23.4-23.8-25.6c-4.7-1-10.6-0.9-16.7,0.2c-10.1,1.9-13.8,6.8-13.3,17.4
		c0.1,2.5,0.4,5,0.6,7.4c0.5,5.2,0.9,10.2,0.4,15c-0.3,2.7-1.2,5.2-1.9,6.8c-1.5,3.6-4.9,9.7-9.1,16.3c-4.2,6.5-9.7,11.2-15.3,13
		c-10.6,3.4-24.9,0-33.1-7.8c-4.2-3.9-8.6-10.6-6.1-20.2c0.2-0.6,0.4-1.2,0.7-1.8c0.3-0.7,0.7-1.5,0.9-2.4c1.3-2.2,2.9-4.2,4.5-6.1
		c3.5-4.4,6.9-8.5,5.6-14.4c-0.2-1.1-0.7-2.2-1.2-3.5c-1-2.5-2.1-5.1-0.9-6.7c2.2-2.7,5.2-5.6,8.3-8.6c5.5-5.2,11.1-10.6,12.8-15.7
		c1.6-5.1-1.7-10.1-3.1-12.3c-1.5-2.3-3.3-4.7-5.1-7.3c-1.4-2-2.9-4-4.3-6c-1.2-1.7-2.3-3.3-3.4-4.9c-2.6-3.7-5-7.2-7.5-11
		c-1-1.5-2-3.1-3-4.6c-1.6-2.6-3.3-5.2-5-7.5c-3.7-4.9-7.9-7-12.4-6.1c-4.5,0.9-9.4,4.4-13.7,7.6c-0.6,0.4-1.2,0.9-1.7,1.3
		c-7.9,6-16.9,12.7-19.3,20.2c-2,6.4,1.7,9.4,5.6,12.5c0.4,0.3,0.9,0.7,1.3,1c2.6,2.1,4.6,4.4,6.2,6.3c2.2,2.6,4.1,5.7,6,8.6
		c1.3,2.1,2.6,4.1,3.8,5.8c4.3,5.6,9.9,8.1,15.3,10.6c5.3,2.4,10.8,4.8,14.9,10.2c0,0.2,0,0.4,0,0.6c0,0.6,0,1.1-0.1,1.7
		c-4.9,5.3-11,6.6-18.7,4.1c-2.3-0.8-4.6-2-7.1-3.4c-5.5-3-11.1-6-17.6-4c-4.7,1.4-7.9,4.7-11.1,7.9c-3.1,3.2-6.3,6.4-10.9,8
		c-2.7,0.9-5.5,1.2-9.5,1.5c-9.9,0.8-14.7,1.9-18.8,7.1c-5.4,6.8-12,18.9-14,23.9c-0.8,2-1.3,3.5-1.5,4.6
		c-1.7,8.7,3.6,15.5,8.4,20.5c1.2,1.2,2.5,2.3,3.7,3.3c1.1,1,2.3,1.9,3.3,3c2.2,2.2,3.9,4.7,5.6,7.2c0.9,1.3,1.7,2.6,2.6,3.8
		c6.7,8.9,8.7,16.6,6.5,25.1c-1.6,6.1-5.1,13.8-13.3,15.9c-3,0.8-6.2,1.2-9.7,1.5c-3.2,0.4-6.5,0.8-9.7,1.5c-2.8,0.6-5.5,1.5-8,2.3
		c-3.6,1.1-7,2.2-10.5,2.6c-6.2,0.8-11.6-0.5-16.9-1.7c-4.7-1.1-9.1-2.1-13.5-1.5v0.2c4.3-0.6,8.8,0.4,13.4,1.5
		c5.3,1.2,10.8,2.5,17,1.7c3.5-0.5,6.9-1.5,10.5-2.6c2.6-0.8,5.2-1.6,8-2.3c3.2-0.7,6.5-1.1,9.6-1.5c3.4-0.4,6.7-0.8,9.7-1.5
		c6.5-1.7,11.2-7.2,13.4-16.1c2.2-8.6,0.2-16.4-6.5-25.3c-0.9-1.2-1.8-2.5-2.6-3.8c-1.7-2.5-3.4-5.1-5.6-7.2c-1.1-1.1-2.2-2-3.3-3
		c-1.2-1.1-2.5-2.2-3.7-3.4c-4.8-4.9-10.1-11.7-8.4-20.3c0.2-1.1,0.7-2.6,1.5-4.5c2-5,8.6-17,14-23.8c4-5.1,8.8-6.3,18.7-7
		c4-0.3,6.8-0.6,9.5-1.5c4.7-1.6,7.9-4.9,11-8c3.3-3.3,6.3-6.5,11-7.8c6.4-1.9,12.1,1.1,17.5,4c2.5,1.3,4.8,2.6,7.1,3.4
		c7.7,2.6,13.9,1.2,18.9-4.2l0,0c0.2-0.6,0.1-1.2,0.1-1.7c0-0.2,0-0.4,0-0.6v0l0,0c-4.2-5.5-9.7-7.9-15-10.3
		c-5.4-2.4-10.9-4.9-15.2-10.5c-1.2-1.6-2.5-3.6-3.8-5.8c-1.9-3-3.8-6.1-6-8.7c-1.6-1.9-3.6-4.1-6.2-6.3c-0.4-0.4-0.9-0.7-1.3-1
		c-3.9-3.1-7.5-6.1-5.6-12.3c2.4-7.4,11.3-14.1,19.2-20.1c0.6-0.4,1.2-0.9,1.7-1.3c4.2-3.2,9.1-6.7,13.6-7.6s8.6,1.1,12.3,6
		c1.7,2.2,3.4,4.9,5,7.5c1,1.5,2,3.1,3,4.6c2.5,3.8,5,7.3,7.5,11c1.1,1.6,2.3,3.2,3.4,4.9c1.4,2,2.9,4.1,4.3,6
		c1.9,2.5,3.6,4.9,5.1,7.3c1.4,2.1,4.7,7.1,3.1,12.1c-1.6,5-7.3,10.4-12.7,15.6c-3.2,3-6.2,5.9-8.4,8.6c-1.3,1.6-0.2,4.3,0.9,6.9
		c0.5,1.2,1,2.4,1.2,3.4c1.3,5.8-2,9.9-5.5,14.2c-1.6,1.9-3.2,4-4.5,6.2l0,0c-0.2,0.8-0.5,1.6-0.9,2.3c-0.3,0.6-0.5,1.2-0.7,1.8
		c-1.9,7.6,0.3,14.8,6.2,20.4c8.3,7.9,22.6,11.2,33.3,7.8c5.6-1.8,11.3-6.6,15.4-13.1c4.2-6.6,7.6-12.7,9.1-16.3
		c0.7-1.6,1.6-4.1,1.9-6.8c0.6-4.8,0.1-9.8-0.4-15c-0.2-2.4-0.5-4.9-0.6-7.4c-0.3-5.4,0.6-9.1,2.6-11.8c2.1-2.7,5.4-4.4,10.5-5.4
		c6.1-1.1,12-1.2,16.6-0.2c10.1,2.2,21.2,14.1,23.6,25.5c0.7,3.3,0.1,6.7-0.5,9.8c-1.1,5-3.1,10.4-5.1,15.7
		c-0.7,1.8-1.4,3.7-2.1,5.6c-0.2,0.4-0.3,0.8-0.5,1.2c-0.3,1-0.7,2-1.1,2.9c-1.3,3.5-3,7-4.9,10.6c-0.5,0.9-1.1,1.9-1.7,2.8
		c-1,1.6-2.1,3.2-2.7,4.9c-0.3,0.8-0.5,1.5-0.8,2.2c-0.7,2.3-1.4,4.5-3,6.8c-1.8,2.6-4.1,5-6.3,7.2c-1.3,1.3-2.3,2.7-3.2,4
		c-0.8,1.2-1.7,2.4-2.8,3.6c-1.3,1.4-2.7,2.7-4.1,3.9c-1.5,1.3-3,2.7-4.4,4.2c-0.9,1-1.7,1.9-2.5,2.9c-0.7,0.9-1.4,1.8-2.2,2.6
		c-0.4,0.5-0.9,0.9-1.3,1.3c-0.8,0.8-1.7,1.5-2.2,2.5c-0.8,1.3-1.3,2.7-1.9,4c-0.7,1.7-1.4,3.6-2.5,5.1c-3.7,5.4-10.2,8.7-19.7,10.2
		c-4.2,0.7-8.8,1-13.3,1.3c-7.4,0.5-14.3,1-19.3,2.9c-2.9,1.2-5.5,3-8,4.7c-2.8,2-5.5,3.9-8.2,4.4c-5.2,1-8.7-3.2-11.7-7
		c-1.2-1.5-2.4-2.9-3.6-4c-1-0.9-1.9-1.8-2.7-2.7c-1.6-1.6-3-3.2-5.2-4.4c-2.7-1.5-5.6-2.7-8.3-3.8c-0.6-0.2-1.2-0.5-1.8-0.7
		c-8-3.4-12.7-7.6-15.9-14.5c-2.1-4.4-2.9-9-2.7-15.3c0.2-6.2-5.2-10.7-9.6-14.3l-0.2-0.1c-0.9-0.8-1.9-1.5-2.9-2.3
		c-4.7-3.6-9.5-7.4-11.2-12.9c-0.5-1.9-0.5-3.6-0.2-5.6c1.4-9.9,8.5-17.4,18.6-19.5c3.3-0.7,6.3-1.1,9.2-1.4
		c2.7-0.3,5.3-0.7,7.8-1.2c1.4-0.3,3.2-0.8,4.7-1.3c0.7-0.2,1.4-0.4,2.1-0.6c3.9-1.1,7-0.9,9.4,0.6c4.4,2.8,5.9,9.8,7.4,18.6
		c0.3,1.9,1,3.8,1.6,5.8c1.3,3.8,2.6,7.7,1.6,11.4c-0.7,2.4-2.2,4.7-3.6,7c-3.3,5.2-6.5,10.1-0.1,15.2c1.5,1.2,3.1,2.4,4.6,3.5
		c5.8,4.3,11.3,8.3,12.8,16.5c1.4,7.3,6,11.8,13.9,13.4c15.9,3.4,28.4,3.7,37.2,1c6.8-2.1,12-7.3,13.9-13.7
		c2.1-7.1,5.4-14.8,10.2-23.6c1.4-2.7,3.3-5.7,5.7-8.5c1.7-1.9,3.7-3.6,5.7-5.3c1.5-1.3,3.2-2.6,4.6-4.1c1-1.1,2.1-2.1,3.1-3.1
		c2.8-2.8,5.7-5.6,8.3-8.7c4.6-5.4,8.1-12.3,10.6-21.3l0.3-0.9c1.6-5.4,3.5-12.1,1.1-18.5c-3-8-10.6-13.8-19.2-14.6
		c-6.7-0.6-10.5,2.3-11.6,8.8c-0.6,3.1-0.3,6.2,0,9.2c0.1,0.9,0.1,1.8,0.2,2.6c0.1,1.2,0.2,2.3,0.3,3.5c0.2,2.9,0.5,5.9,0.3,9
		c-0.7,9.6-3.6,13.2-9.1,19.3c-5.6,6.1-12,12.9-18,15.7c-3.8,1.8-13.8,5.6-25.7,3.6c-20.4-3.5-32.1-13.5-34.9-29.7
		c-0.3-1.8-0.5-3.4-0.6-5.1c-0.2-2-0.4-4.1-0.9-6.6c-0.7-4-3.6-8.3-7.8-11.9c-4.2-3.5-9.1-5.8-13.3-6.1c-4.9-0.4-8.7,2.5-11.7,4.8
		l-0.4,0.3c-3.2,2.4-6.1,4.5-10.2,6c-2.6,1-6.3,1.6-9.8,2.2c-2.8,0.5-5.5,1-7.6,1.6c-12.2,3.5-18,17.3-19.9,23l-0.1,0.5
		c-0.9,2.6-1.9,5.7-1.2,9.4c1.2,5.6,5.7,10.3,9.3,13.2c8.1,6.7,13.1,16.3,16.9,24.9c0.8,1.8,1.2,3.8,1.6,5.8c0.4,2,0.8,4.1,1.7,6.1
		c1.9,4.3,4.4,7.8,7.1,10.2c2.6,2.3,5.8,3.8,8.8,5.3c2.3,1.2,4.8,2.3,6.9,3.8c4.3,3,8.5,7,7.1,13.7c-0.7,3.4-3.9,6.7-6.7,9.6
		c-0.7,0.8-1.4,1.5-2,2.2c-4,4.3-6.5,7.3-8,12.2c-1.1,3.6-1.2,10.2-0.2,14.8c0.8,3.8,1.8,7.4,2.8,10.9h0.2c-1-3.5-2-7.1-2.8-10.9
		C104,385.5,104.1,379,105.2,375.4z"/>
</g>
</svg>
